<?xml version="1.0" encoding="UTF-8"?>
<svg id="Calque_2" data-name="Calque 2" xmlns="http://www.w3.org/2000/svg" viewBox="0 0 46.59 15.49">
  <defs>
    <style>
      .cls-1 {
        fill: #fff;
      }
    </style>
  </defs>
  <g id="Portfolio_page" data-name="Portfolio page">
    <g>
      <path class="cls-1" d="M0,9.01c0-.29,0-.58.02-.84,0-.19,0-.41.05-.58.02-.05.02-.1.02-.14.02-.22.05-.46.1-.67.05-.31.1-.62.17-.94.05-.29.12-.58.19-.86.02-.14.1-.29.14-.43.05-.12.05-.22.1-.31l.22-.6c.1-.22.22-.46.34-.67.02-.05.05-.1.07-.14l.1-.14c.07-.24.22-.43.36-.6.07-.12.14-.26.24-.38l.07-.14c.07-.12.14-.22.24-.31.07-.12.17-.22.29-.26.1-.05.12-.02.19.05.07.07.14.17.19.26.07.1.05.22,0,.31-.05.14-.14.26-.19.38-.02.05-.07.1-.07.14-.07.19-.14.38-.29.53-.02.02-.05.05-.05.07-.02.12-.1.24-.17.36-.05.14-.1.29-.17.41-.02.07-.07.14-.14.22-.02.02-.05.1-.07.14-.05.12-.07.22-.1.34-.02.05-.02.1-.05.14,0,.02,0,.07-.02.1-.05.07-.05.17-.1.26-.07.17-.1.34-.12.48-.02.1-.05.19-.05.29-.07.22-.1.46-.12.67,0,.14-.07.31-.1.48-.02.12-.07.26-.02.41v.14c-.07.17-.05.36-.07.53v.19c-.05.17-.02.36-.02.53,0,.12.02.22.02.34.02.12,0,.24.05.38v.07c-.05.24,0,.46.02.7l.07.6c.05.26.12.5.14.77.05.17.07.34.1.5l.07.29c.1.24.17.48.26.7.02.1.05.17.1.24.1.19.22.38.31.55l.07.17s.02.07.02.12c.12.22.24.43.34.65.05.07.12.14.17.19.07.05.14.1.17.17.05.1.02.19-.07.22-.1.05-.17.1-.24.17-.14.1-.29.12-.43.07-.07,0-.12-.02-.17.02,0,.02-.02.02-.02.02-.1,0-.19.05-.26.05-.07.02-.17,0-.22-.05l-.07-.05c-.12-.02-.24-.07-.26-.22-.24-.22-.31-.5-.48-.74-.05-.07-.05-.14-.07-.22-.05-.1-.07-.19-.12-.29-.1-.12-.1-.29-.14-.43,0-.05-.02-.12-.05-.17-.07-.19-.1-.38-.12-.58-.05-.22-.07-.43-.12-.65-.02-.19-.1-.38-.07-.58,0-.05-.02-.1-.05-.14,0-.02-.02-.05-.02-.1,0-.31-.07-.6-.07-.91,0-.43-.02-.86-.02-1.27Z"/>
      <path class="cls-1" d="M13.01,12.3c0-.34-.02-.65-.02-.98,0-.07.02-.14.02-.22v-.12c-.05-.22-.05-.43,0-.65v-.02c-.02-.46.02-.89,0-1.32,0-.17.05-.34.05-.5,0-.14.07-.31.02-.48-.02-.07.02-.17.02-.26,0-.24.02-.48.05-.7,0-.24.02-.46,0-.7,0-.14.02-.29.05-.43,0-.05.02-.1.02-.17.02-.17.02-.34.05-.5v-.14c0-.26.02-.53.07-.77.02-.12,0-.24,0-.36.02-.29.05-.58.12-.84v-.29c-.02-.26.05-.5.1-.74.02-.1.05-.19.05-.29,0-.19,0-.38.05-.55.02-.1,0-.22,0-.31v-.26c.02-.14.07-.19.22-.19.1,0,.19.02.29.07.05.07.12.07.19.05h.14s.12-.02.17-.02h.65s.05,0,.07.02c.19.07.41.05.6.02.14-.02.29-.02.43-.05.17-.02.36-.05.53-.05.26-.02.5-.02.74-.02.19.1.41.1.5.31,0,.02.05.07.07.1.1.1.12.24.07.36-.02.12-.07.24-.14.34-.02.07-.07.1-.14.1s-.14,0-.19-.05c-.17-.1-.34-.05-.48-.05-.1,0-.19,0-.29-.02-.1-.02-.19-.02-.29,0-.22.02-.43,0-.62.1h-.1c-.14-.02-.29,0-.43-.07-.05-.02-.07-.02-.12-.02-.12.02-.24.02-.38.02-.17,0-.36.02-.55.05-.07,0-.12.05-.12.1,0,.1-.07.22-.02.31.02.05.02.07.02.1-.05.14-.02.31-.07.46-.02.07-.02.17-.02.24,0,.12-.07.22-.07.34,0,.1-.02.19-.02.26,0,.17-.02.34,0,.5,0,.05,0,.12-.02.19-.05.14-.1.29-.07.46,0,.07-.02.14-.02.24v.05c.02.17,0,.34,0,.5,0,.1.02.12.12.1.31-.05.65-.07.96-.1.1,0,.22-.02.31-.02.12,0,.24-.02.34-.02.29-.02.58-.02.84-.02.12-.02.24.02.34.07.17.07.29.19.38.31.1.12.14.24.07.38-.05.14-.12.22-.19.34-.05.07-.12.1-.19.07-.02-.02-.05-.02-.07-.02-.12-.14-.29-.14-.46-.14-.14.02-.29,0-.43,0-.07,0-.14.02-.19.02-.05.02-.1.02-.14.02-.07-.02-.17-.05-.24-.02-.05.02-.12.02-.17.02-.14,0-.26.02-.41.02-.19.02-.36.02-.55.05-.14,0-.26.1-.36.17-.07.05-.07.12-.07.17,0,.17-.02.34,0,.48v.12c.05.1.05.17.02.29-.02.22-.05.41-.07.62v.12c.05.07.05.17.02.24-.05.19-.05.36-.02.55,0,.07-.02.12-.02.19v.55c0,.1.02.17.05.26.05.12-.07.22-.02.34.07.12.02.22.02.31,0,.17,0,.34.02.48.02.12.02.22,0,.31-.02.1-.05.19.02.29v.07c-.07.1-.05.19-.02.31,0,.24.02.48.02.72,0,.1,0,.17.02.24.07.17.05.31.05.48,0,.1,0,.19.02.29v.22c0,.12.05.19.19.19.22-.02.43-.02.67-.05.14,0,.31.02.48,0,.31,0,.65-.02.98-.07.19-.05.38-.1.58-.19.12-.05.22-.12.34-.14.12-.02.24,0,.34,0,.07,0,.12.05.19.05.12.05.24.07.34.17.05.05.12.1.19.14.05.05.07.1.05.17-.05.14-.07.29-.12.43-.02.07-.07.14-.14.19-.1.1-.14.1-.26,0-.12-.07-.24-.07-.36-.02l-.53.22c-.12.05-.24.05-.36.05-.12.02-.22,0-.34,0h-.07c-.31.1-.62.07-.96,0h-.17c-.22.05-.46.05-.7.05h-.07c-.12-.1-.24-.05-.34,0-.1.05-.19.02-.29-.02l-.02-.02-.36-.41s-.02-.02-.02-.05c-.02-.17-.07-.31-.12-.48l-.1-.53c-.02-.24-.07-.46-.07-.7,0-.22-.05-.43-.07-.65,0-.1-.02-.22-.02-.31Z"/>
      <path class="cls-1" d="M26.86.82c0,.1-.02.17-.05.24-.02.02-.02.05-.02.05-.07.24-.17.48-.24.72v.07c0,.24-.1.46-.14.67l-.05.19c-.02.1-.05.19-.1.29,0,.02-.02.05-.02.07-.05.29-.17.53-.17.82,0,.07-.02.14-.05.19-.05.1-.1.17-.12.26-.02.1,0,.19-.02.26,0,.1-.05.19-.05.29l-.07.34c-.02.26-.05.53-.07.77l-.14.91c-.05.17-.07.34-.07.5,0,.07-.05.14-.05.22-.05.19-.1.36-.12.55v.02c.02.22-.05.43-.07.65,0,.1-.05.22-.07.31l-.05.12c-.05.26-.07.53-.12.79-.07.24-.1.48-.14.72,0,.1-.02.17-.05.24l-.19.77c-.07.24-.14.46-.19.67-.05.24-.12.43-.19.67-.07.17-.17.36-.17.55,0,.12-.05.22-.1.31-.07.17-.14.34-.19.5-.02.17-.1.31-.14.43-.12.29-.43.46-.72.41-.02-.02-.05-.02-.1-.02-.17,0-.26-.1-.36-.24-.07-.1-.14-.19-.19-.31v-.02c-.19-.22-.24-.5-.36-.74-.1-.26-.22-.5-.26-.77-.05-.14-.07-.31-.12-.46,0-.1-.02-.22-.05-.31-.07-.17-.07-.34-.1-.5-.02-.12-.05-.24-.07-.36l-.07-.72c-.02-.26-.07-.5-.1-.74-.02-.12-.02-.22-.05-.34v-.07c-.07-.17-.05-.34-.1-.48-.02-.17,0-.36-.07-.5,0-.29-.12-.58-.14-.86,0-.19-.02-.38-.07-.6-.02-.19-.02-.41-.05-.6,0-.07-.02-.14-.02-.24-.02-.02-.02-.07-.02-.12-.02-.24-.05-.46-.12-.7-.02-.12-.02-.24-.05-.36,0-.17,0-.34-.07-.5v-.07c-.02-.26-.02-.53-.05-.79l-.07-.72c-.02-.19-.05-.41-.1-.6-.02-.24-.07-.48-.12-.72-.02-.07-.02-.17-.05-.24-.02-.24-.05-.5,0-.74,0-.1.05-.17.07-.26.02-.02.05-.05.07-.05.1-.05.17-.12.22-.19.02-.05.07-.07.1-.12.07-.07.17-.07.24-.05.02,0,.07.02.07.05.02.12.12.17.19.26.02.05.07.07.07.12.02.14.05.29.07.41l.07.67c.02.19.1.36.12.53.02.12.05.26.05.38,0,.14.05.26.05.41.02,0,.02.02.02.02.02.19.05.38.05.58.02.14.05.29.05.43.02.17.02.34.05.5,0,.14.05.29.05.43,0,.17.05.29.1.43.07.34.12.65.12.98,0,.07.02.14.02.22,0,.26.05.5.07.77,0,.19.1.34.1.53.02.17.07.36.07.55.02.22.07.43.1.67,0,.17.05.34.1.5v.12c.02.07.05.14.05.19s.02.1.02.14c0,.19,0,.38.05.58.02.07,0,.17,0,.26,0,.19.07.38.1.6,0,.05.02.12.05.19.02.24.05.48.12.7.07.22.12.43.19.62.02.12.07.22.12.31,0,.02.02.05.05.07.05.05.1.05.12,0l.07-.19c.07-.22.12-.46.17-.67l.14-.6c.05-.24.1-.46.12-.67.02-.1.05-.19.07-.29l.14-.58c.02-.22.1-.41.14-.62l.07-.46c.02-.17.02-.36.07-.53.1-.34.12-.67.22-1.01l.07-.41c.05-.1.05-.19.05-.29.02-.36.1-.72.14-1.08.05-.31.12-.62.19-.94.02-.17.02-.36.07-.55.02-.17.07-.36.12-.53.02-.14.07-.31.12-.46.02-.1.07-.22.1-.34.02-.02.02-.05.02-.07.05-.17.1-.34.12-.5.02-.14.05-.26.1-.41,0-.02,0-.05.02-.07.05-.17.07-.34.14-.5.05-.12.05-.24.1-.36.05-.29.19-.53.31-.77.02-.02.02-.05.05-.05.12-.1.24-.19.38-.26l.07-.05c.07-.02.14,0,.14.07.02.1.07.14.12.22.05.1.1.17.07.26Z"/>
      <path class="cls-1" d="M33.58,11.34s-.02.05-.02.07c.05.24,0,.48,0,.72,0,.19,0,.38-.07.58-.05.14-.05.31-.02.46.02.05.02.1.02.14,0,.02-.02.05,0,.05.1.14,0,.26-.05.38-.02.05,0,.12-.02.19l-.07.58s-.02.02-.02.02c.07.22-.07.41-.07.6,0,.07-.05.14-.12.19-.05.02-.12.02-.19.05-.14-.1-.38-.12-.46-.34-.05-.1-.1-.19-.12-.29v-.02s.02.07,0,0c0-.05-.02-.1-.05-.14v.05c-.02-.07-.05-.19-.12-.36,0-.17.02-.31.02-.46,0-.07,0-.12.02-.17,0-.14,0-.26.02-.41.02-.12.02-.24,0-.36v-.1c0-.07.02-.12,0-.19v-.07c0-.12.02-.24.02-.38,0-.12-.05-.19-.19-.22,0,0,0-.02-.02,0-.17.02-.36,0-.53.05-.07.02-.14.05-.22.02-.17-.02-.34-.05-.5,0h-.05c-.29.02-.6.02-.91.02-.07,0-.14,0-.22.02-.12,0-.22.12-.22.24.05.19,0,.38,0,.58.02.24.02.48.05.74v.65c-.07.14-.02.31-.05.48-.02.12-.05.26-.12.38-.07.12-.14.14-.29.12-.24-.02-.36-.17-.46-.38,0-.02-.02-.07-.05-.1-.1-.12-.12-.26-.12-.38-.02-.17,0-.34,0-.48v-.1c-.02-.14-.05-.31-.07-.46v-.62c-.02-.29-.02-.58-.02-.89,0-.24,0-.48.02-.72v-.38c0-.19,0-.38.05-.58v-.07c0-.29.07-.58.12-.84.02-.26.1-.5.12-.74.02-.17.05-.34.05-.48.02-.07.02-.14.05-.22.02-.14.05-.26.05-.41s.05-.29.07-.43c.02-.14.07-.29.1-.43l.12-.62c.02-.17.07-.34.12-.5s.07-.34.12-.5c0-.05.02-.1.02-.14.02-.02.02-.07.02-.1,0-.34.1-.67.19-.98.07-.31.17-.6.26-.91.05-.19.14-.38.22-.58l.22-.5c.1-.17.17-.34.26-.5.02-.07.07-.14.07-.24,0-.07.05-.14.14-.19.12-.05.22-.14.31-.22.1-.07.17-.1.26-.1.12,0,.24-.02.36,0,.05,0,.07.02.1.05.1.17.22.34.31.48.1.12.12.24.19.36,0,.05.02.1.05.12.12.17.17.36.22.55.02.1.07.17.1.26.12.29.22.58.26.89.02.17.02.36.1.53.05.14.05.29.07.43l.17.96c.02.22.05.41.07.6l.07.48c.02.22.07.41.1.6v.31c0,.29.02.55.07.82v.36c0,.22-.02.43.02.65v.17c0,.14.02.29.02.43v.14c-.05.22-.02.41,0,.62.02.12,0,.26-.02.38,0,.1-.02.22.02.34.05.12.05.24.02.38ZM32.3,10.86v-.26c.02-.17.05-.34.05-.5s-.02-.34-.05-.5c0-.19.02-.38,0-.58,0-.26.02-.53-.02-.77,0-.07,0-.14.02-.22v-.22c0-.22-.02-.43-.02-.65v-.48c.02-.17-.02-.31-.07-.48s-.07-.36-.1-.55c-.02-.24,0-.5-.07-.74-.07-.22-.07-.43-.12-.65-.05-.26-.07-.5-.14-.77-.05-.22-.1-.46-.17-.67l-.22-.6c-.05-.14-.07-.31-.17-.46-.02-.05-.05-.12-.12-.12-.1,0-.1.07-.12.14-.02.02-.02.07-.02.1l-.07.22c-.17.36-.29.74-.36,1.13-.02.17-.07.34-.12.5-.07.24-.19.48-.17.74,0,.1-.05.22-.02.34,0,.17-.05.34-.1.48,0,.05-.02.1-.02.12-.05.24-.07.48-.12.72-.05.22-.1.46-.1.7-.02.17-.05.36-.02.55v.07c-.05.07-.05.14-.05.22l-.02.24c-.02.24-.05.48-.07.74-.02.17-.02.34-.07.5-.07.17-.05.34-.1.5-.05.14-.05.34-.05.5-.02.22-.02.41-.05.62,0,.07,0,.12.05.14.17.12.34.24.55.24.19-.02.38-.02.6-.02l.1.02c.22-.02.41,0,.62-.02.22-.02.43-.05.65-.05h.1c.17-.05.22-.12.19-.24ZM32.35,14.72s-.02-.07-.05-.1c.02.05.05.07.05.1Z"/>
      <path class="cls-1" d="M45.48,8.53c-.02-.6-.02-1.2-.02-1.8,0-.1-.02-.17-.02-.26,0-.19,0-.38-.02-.55v-.48s0-.05-.02-.07c-.07-.26-.05-.55-.12-.82-.02-.14-.07-.29-.1-.43v-.02c-.02-.17-.12-.34-.14-.5,0-.07-.05-.14-.07-.19-.05-.17-.1-.31-.17-.48-.05-.12-.1-.24-.17-.36-.1-.24-.22-.46-.31-.7-.07-.17-.17-.31-.22-.48-.07-.19-.17-.38-.22-.6-.1-.26.02-.58.24-.74.02-.02.07-.02.12-.02.14-.02.26.02.36.14.05.07.12.12.17.19.02,0,.02.02.05.05l.26.43c.24.34.38.74.58,1.08.1.17.17.34.24.53.07.22.17.46.24.7.05.1.07.22.1.31.07.38.14.74.24,1.1,0,.12.02.22.05.31.07.17.05.34.07.53.02.24-.02.48,0,.74,0,.24-.02.5-.02.77v.29s.02.07,0,.12c0,.12-.02.24-.05.36v.02c.07.14.02.31.05.46,0,.12-.02.24-.02.36,0,.02-.02.05-.02.07.07.19-.02.38-.02.58-.02.1-.02.19-.02.26-.02.19-.07.41-.07.6-.02.14-.05.29-.12.41-.02.05-.05.07-.05.12-.05.19-.12.38-.19.58-.05.07-.05.14-.07.22l-.14.48c-.12.34-.22.67-.43.96-.07.12-.1.24-.14.36-.05.17-.14.34-.24.5-.14.22-.31.43-.46.67-.07.12-.14.26-.19.41-.07.14-.12.26-.24.36-.12.07-.19.17-.29.26-.02.02-.05.05-.1.07,0,.02-.02.02-.02.02-.07-.02-.17-.07-.22-.12-.05,0-.05-.07-.05-.1-.02-.22.02-.41.12-.58.12-.19.22-.41.31-.62.02-.07.07-.12.12-.19.17-.29.36-.55.43-.91,0-.1.07-.19.12-.31.17-.38.31-.77.46-1.18.07-.17.1-.36.14-.53l.14-.72c.05-.22.1-.43.12-.65,0-.24.05-.46.07-.7.02-.1,0-.19,0-.31Z"/>
    </g>
  </g>
</svg>