<?xml version="1.0" encoding="UTF-8"?>
<svg id="Calque_2" data-name="Calque 2" xmlns="http://www.w3.org/2000/svg" viewBox="0 0 68.59 15.9">
  <defs>
    <style>
      .cls-1 {
        fill: #fff;
      }
    </style>
  </defs>
  <g id="Landing_page" data-name="Landing page">
    <g>
      <path class="cls-1" d="M.04,12.7c0-.34-.02-.65-.02-.98,0-.07.02-.14.02-.22v-.12c-.05-.22-.05-.43,0-.65v-.02c-.02-.46.02-.89,0-1.32,0-.17.05-.34.05-.5,0-.14.07-.31.02-.48-.02-.07.02-.17.02-.26,0-.24.02-.48.05-.7,0-.24.02-.46,0-.7,0-.14.02-.29.05-.43,0-.05.02-.1.02-.17.02-.17.02-.34.05-.5v-.14c0-.26.02-.53.07-.77.02-.12,0-.24,0-.36.02-.29.05-.58.12-.84v-.29c-.02-.26.05-.5.1-.74.02-.1.05-.19.05-.29,0-.19,0-.38.05-.55.02-.1,0-.22,0-.31v-.26c.02-.14.07-.19.22-.19.1,0,.19.02.29.07.05.07.12.07.19.05h.14s.12-.02.17-.02h.65s.05,0,.07.02c.19.07.41.05.6.02.14-.02.29-.02.43-.05.17-.02.36-.05.53-.05.26-.02.5-.02.74-.02.19.1.41.1.5.31,0,.02.05.07.07.1.1.1.12.24.07.36-.02.12-.07.24-.14.34-.02.07-.07.1-.14.1s-.14,0-.19-.05c-.17-.1-.34-.05-.48-.05-.1,0-.19,0-.29-.02-.1-.02-.19-.02-.29,0-.22.02-.43,0-.62.1h-.1c-.14-.02-.29,0-.43-.07-.05-.02-.07-.02-.12-.02-.12.02-.24.02-.38.02-.17,0-.36.02-.55.05-.07,0-.12.05-.12.1,0,.1-.07.22-.02.31.02.05.02.07.02.1-.05.14-.02.31-.07.46-.02.07-.02.17-.02.24,0,.12-.07.22-.07.34,0,.1-.02.19-.02.26,0,.17-.02.34,0,.5,0,.05,0,.12-.02.19-.05.14-.1.29-.07.46,0,.07-.02.14-.02.24v.05c.02.17,0,.34,0,.5,0,.1.02.12.12.1.31-.05.65-.07.96-.1.1,0,.22-.02.31-.02.12,0,.24-.02.34-.02.29-.02.58-.02.84-.02.12-.02.24.02.34.07.17.07.29.19.38.31.1.12.14.24.07.38-.05.14-.12.22-.19.34-.05.07-.12.1-.19.07-.02-.02-.05-.02-.07-.02-.12-.14-.29-.14-.46-.14-.14.02-.29,0-.43,0-.07,0-.14.02-.19.02-.05.02-.1.02-.14.02-.07-.02-.17-.05-.24-.02-.05.02-.12.02-.17.02-.14,0-.26.02-.41.02-.19.02-.36.02-.55.05-.14,0-.26.1-.36.17-.07.05-.07.12-.07.17,0,.17-.02.34,0,.48v.12c.05.1.05.17.02.29-.02.22-.05.41-.07.62v.12c.05.07.05.17.02.24-.05.19-.05.36-.02.55,0,.07-.02.12-.02.19v.55c0,.1.02.17.05.26.05.12-.07.22-.02.34.07.12.02.22.02.31,0,.17,0,.34.02.48.02.12.02.22,0,.31-.02.1-.05.19.02.29v.07c-.07.1-.05.19-.02.31,0,.24.02.48.02.72,0,.1,0,.17.02.24.07.17.05.31.05.48,0,.1,0,.19.02.29v.22c0,.12.05.19.19.19.22-.02.43-.02.67-.05.14,0,.31.02.48,0,.31,0,.65-.02.98-.07.19-.05.38-.1.58-.19.12-.05.22-.12.34-.14.12-.02.24,0,.34,0,.07,0,.12.05.19.05.12.05.24.07.34.17.05.05.12.1.19.14.05.05.07.1.05.17-.05.14-.07.29-.12.43-.02.07-.07.14-.14.19-.1.1-.14.1-.26,0-.12-.07-.24-.07-.36-.02l-.53.22c-.12.05-.24.05-.36.05-.12.02-.22,0-.34,0h-.07c-.31.1-.62.07-.96,0h-.17c-.22.05-.46.05-.7.05h-.07c-.12-.1-.24-.05-.34,0-.1.05-.19.02-.29-.02l-.02-.02-.36-.41s-.02-.02-.02-.05c-.02-.17-.07-.31-.12-.48l-.1-.53c-.02-.24-.07-.46-.07-.7,0-.22-.05-.43-.07-.65,0-.1-.02-.22-.02-.31Z"/>
      <path class="cls-1" d="M13.88,1.22c0,.1-.02.17-.05.24-.02.02-.02.05-.02.05-.07.24-.17.48-.24.72v.07c0,.24-.1.46-.14.67l-.05.19c-.02.1-.05.19-.1.29,0,.02-.02.05-.02.07-.05.29-.17.53-.17.82,0,.07-.02.14-.05.19-.05.1-.1.17-.12.26-.02.1,0,.19-.02.26,0,.1-.05.19-.05.29l-.07.34c-.02.26-.05.53-.07.77l-.14.91c-.05.17-.07.34-.07.5,0,.07-.05.14-.05.22-.05.19-.1.36-.12.55v.02c.02.22-.05.43-.07.65,0,.1-.05.22-.07.31l-.05.12c-.05.26-.07.53-.12.79-.07.24-.1.48-.14.72,0,.1-.02.17-.05.24l-.19.77c-.07.24-.14.46-.19.67-.05.24-.12.43-.19.67-.07.17-.17.36-.17.55,0,.12-.05.22-.1.31-.07.17-.14.34-.19.5-.02.17-.1.31-.14.43-.12.29-.43.46-.72.41-.02-.02-.05-.02-.1-.02-.17,0-.26-.1-.36-.24-.07-.1-.14-.19-.19-.31v-.02c-.19-.22-.24-.5-.36-.74-.1-.26-.22-.5-.26-.77-.05-.14-.07-.31-.12-.46,0-.1-.02-.22-.05-.31-.07-.17-.07-.34-.1-.5-.02-.12-.05-.24-.07-.36l-.07-.72c-.02-.26-.07-.5-.1-.74-.02-.12-.02-.22-.05-.34v-.07c-.07-.17-.05-.34-.1-.48-.02-.17,0-.36-.07-.5,0-.29-.12-.58-.14-.86,0-.19-.02-.38-.07-.6-.02-.19-.02-.41-.05-.6,0-.07-.02-.14-.02-.24-.02-.02-.02-.07-.02-.12-.02-.24-.05-.46-.12-.7-.02-.12-.02-.24-.05-.36,0-.17,0-.34-.07-.5v-.07c-.02-.26-.02-.53-.05-.79l-.07-.72c-.02-.19-.05-.41-.1-.6-.02-.24-.07-.48-.12-.72-.02-.07-.02-.17-.05-.24-.02-.24-.05-.5,0-.74,0-.1.05-.17.07-.26.02-.02.05-.05.07-.05.1-.05.17-.12.22-.19.02-.05.07-.07.1-.12.07-.07.17-.07.24-.05.02,0,.07.02.07.05.02.12.12.17.19.26.02.05.07.07.07.12.02.14.05.29.07.41l.07.67c.02.19.1.36.12.53.02.12.05.26.05.38,0,.14.05.26.05.41.02,0,.02.02.02.02.02.19.05.38.05.58.02.14.05.29.05.43.02.17.02.34.05.5,0,.14.05.29.05.43,0,.17.05.29.1.43.07.34.12.65.12.98,0,.07.02.14.02.22,0,.26.05.5.07.77,0,.19.1.34.1.53.02.17.07.36.07.55.02.22.07.43.1.67,0,.17.05.34.1.5v.12c.02.07.05.14.05.19s.02.1.02.14c0,.19,0,.38.05.58.02.07,0,.17,0,.26,0,.19.07.38.1.6,0,.05.02.12.05.19.02.24.05.48.12.7.07.22.12.43.19.62.02.12.07.22.12.31,0,.02.02.05.05.07.05.05.1.05.12,0l.07-.19c.07-.22.12-.46.17-.67l.14-.6c.05-.24.1-.46.12-.67.02-.1.05-.19.07-.29l.14-.58c.02-.22.1-.41.14-.62l.07-.46c.02-.17.02-.36.07-.53.1-.34.12-.67.22-1.01l.07-.41c.05-.1.05-.19.05-.29.02-.36.1-.72.14-1.08.05-.31.12-.62.19-.94.02-.17.02-.36.07-.55.02-.17.07-.36.12-.53.02-.14.07-.31.12-.46.02-.1.07-.22.1-.34.02-.02.02-.05.02-.07.05-.17.1-.34.12-.5.02-.14.05-.26.1-.41,0-.02,0-.05.02-.07.05-.17.07-.34.14-.5.05-.12.05-.24.1-.36.05-.29.19-.53.31-.77.02-.02.02-.05.05-.05.12-.1.24-.19.38-.26l.07-.05c.07-.02.14,0,.14.07.02.1.07.14.12.22.05.1.1.17.07.26Z"/>
      <path class="cls-1" d="M20.6,11.74s-.02.05-.02.07c.05.24,0,.48,0,.72,0,.19,0,.38-.07.58-.05.14-.05.31-.02.46.02.05.02.1.02.14,0,.02-.02.05,0,.05.1.14,0,.26-.05.38-.02.05,0,.12-.02.19l-.07.58s-.02.02-.02.02c.07.22-.07.41-.07.6,0,.07-.05.14-.12.19-.05.02-.12.02-.19.05-.14-.1-.38-.12-.46-.34-.05-.1-.1-.19-.12-.29v-.02s.02.07,0,0c0-.05-.02-.1-.05-.14v.05c-.02-.07-.05-.19-.12-.36,0-.17.02-.31.02-.46,0-.07,0-.12.02-.17,0-.14,0-.26.02-.41.02-.12.02-.24,0-.36v-.1c0-.07.02-.12,0-.19v-.07c0-.12.02-.24.02-.38,0-.12-.05-.19-.19-.22,0,0,0-.02-.02,0-.17.02-.36,0-.53.05-.07.02-.14.05-.22.02-.17-.02-.34-.05-.5,0h-.05c-.29.02-.6.02-.91.02-.07,0-.14,0-.22.02-.12,0-.22.12-.22.24.05.19,0,.38,0,.58.02.24.02.48.05.74v.65c-.07.14-.02.31-.05.48-.02.12-.05.26-.12.38-.07.12-.14.14-.29.12-.24-.02-.36-.17-.46-.38,0-.02-.02-.07-.05-.1-.1-.12-.12-.26-.12-.38-.02-.17,0-.34,0-.48v-.1c-.02-.14-.05-.31-.07-.46v-.62c-.02-.29-.02-.58-.02-.89,0-.24,0-.48.02-.72v-.38c0-.19,0-.38.05-.58v-.07c0-.29.07-.58.12-.84.02-.26.1-.5.12-.74.02-.17.05-.34.05-.48.02-.07.02-.14.05-.22.02-.14.05-.26.05-.41s.05-.29.07-.43.07-.29.1-.43l.12-.62c.02-.17.07-.34.12-.5.05-.17.07-.34.12-.5,0-.05.02-.1.02-.14.02-.02.02-.07.02-.1,0-.34.1-.67.19-.98.07-.31.17-.6.26-.91.05-.19.14-.38.22-.58l.22-.5c.1-.17.17-.34.26-.5.02-.07.07-.14.07-.24,0-.07.05-.14.14-.19.12-.05.22-.14.31-.22.1-.07.17-.1.26-.1.12,0,.24-.02.36,0,.05,0,.07.02.1.05.1.17.22.34.31.48.1.12.12.24.19.36,0,.05.02.1.05.12.12.17.17.36.22.55.02.1.07.17.1.26.12.29.22.58.26.89.02.17.02.36.1.53.05.14.05.29.07.43l.17.96c.02.22.05.41.07.6l.07.48c.02.22.07.41.1.6v.31c0,.29.02.55.07.82v.36c0,.22-.02.43.02.65v.17c0,.14.02.29.02.43v.14c-.05.22-.02.41,0,.62.02.12,0,.26-.02.38,0,.1-.02.22.02.34.05.12.05.24.02.38ZM19.33,11.26v-.26c.02-.17.05-.34.05-.5s-.02-.34-.05-.5c0-.19.02-.38,0-.58,0-.26.02-.53-.02-.77,0-.07,0-.14.02-.22v-.22c0-.22-.02-.43-.02-.65v-.48c.02-.17-.02-.31-.07-.48s-.07-.36-.1-.55c-.02-.24,0-.5-.07-.74-.07-.22-.07-.43-.12-.65-.05-.26-.07-.5-.14-.77-.05-.22-.1-.46-.17-.67l-.22-.6c-.05-.14-.07-.31-.17-.46-.02-.05-.05-.12-.12-.12-.1,0-.1.07-.12.14-.02.02-.02.07-.02.1l-.07.22c-.17.36-.29.74-.36,1.13-.02.17-.07.34-.12.5-.07.24-.19.48-.17.74,0,.1-.05.22-.02.34,0,.17-.05.34-.1.48,0,.05-.02.1-.02.12-.05.24-.07.48-.12.72-.05.22-.1.46-.1.7-.02.17-.05.36-.02.55v.07c-.05.07-.05.14-.05.22l-.02.24c-.02.24-.05.48-.07.74-.02.17-.02.34-.07.5-.07.17-.05.34-.1.5-.05.14-.05.34-.05.5-.02.22-.02.41-.05.62,0,.07,0,.12.05.14.17.12.34.24.55.24.19-.02.38-.02.6-.02l.1.02c.22-.02.41,0,.62-.02.22-.02.43-.05.65-.05h.1c.17-.05.22-.12.19-.24ZM19.38,15.12s-.02-.07-.05-.1c.02.05.05.07.05.1Z"/>
      <path class="cls-1" d="M27.73,6.07c0-.22,0-.46.02-.67l.1-.74c0-.14.02-.26.02-.38.02-.29.05-.55.05-.82,0-.34-.02-.67-.02-1.01v-.74c.02-.17.02-.31.02-.48,0-.02,0-.1-.02-.12-.07-.07-.05-.17-.07-.26-.02-.02,0-.07,0-.07.02-.1.05-.17.1-.24.05-.07.1-.14.19-.17.05-.02.1-.05.14-.07l.17-.07c.1,0,.19.02.29.02.07.12.24.19.29.36.02.07.07.17.1.26.02.1,0,.17-.02.26-.07.12-.12.26-.1.41,0,.07-.02.14-.02.22,0,.05-.02.07,0,.12.05.29,0,.55.02.84v.79c.02.07.02.14.02.22,0,.1-.02.17-.02.26-.05.26-.1.53-.12.79v.12c0,.1-.02.17-.07.22-.02.05-.02.1-.02.14.05.19.02.38,0,.6,0,.02-.02.05,0,.07.02.1,0,.22,0,.31-.02.26-.02.5-.05.74,0,.17-.02.34-.05.5,0,.19-.02.38-.02.58,0,.26.02.53-.02.77-.02.29-.02.55-.1.84-.05.19-.07.38-.1.6-.02.14-.02.31-.02.46,0,.17-.02.31-.05.46v.07c.02.26-.07.53-.12.79-.02.29-.1.58-.1.86,0,.07-.02.14-.05.22,0,.07,0,.17-.02.24,0,.1,0,.19-.02.29v.7c0,.17.05.36.07.53.02.14-.02.29-.05.43-.02.05-.02.07-.02.12,0,.12-.05.19-.17.24-.14.05-.31.12-.5.12-.05,0-.1-.02-.14-.07-.07-.1-.14-.17-.19-.24-.05-.07-.1-.12-.12-.19-.1-.29-.22-.58-.34-.86-.12-.29-.24-.55-.34-.84-.07-.17-.17-.34-.24-.5-.07-.19-.17-.38-.19-.6-.05-.29-.17-.55-.29-.82-.1-.22-.17-.46-.22-.7-.02-.12-.05-.24-.1-.34-.12-.31-.19-.65-.29-.96-.05-.24-.12-.48-.19-.72-.05-.12-.07-.24-.12-.38l-.14-.46c-.07-.22-.17-.41-.24-.62-.02-.12-.07-.26-.12-.38l-.22-.58c-.02-.07-.02-.14-.05-.22-.02-.12-.05-.26-.1-.38-.02-.12-.1-.22-.14-.34-.05-.1-.1-.19-.12-.31-.07-.14-.1-.29-.14-.43-.07-.17-.12-.36-.19-.53,0-.02-.02-.07-.05-.05-.02,0-.02.05-.02.07,0,.12.02.24.05.36.02.17.05.34.05.5,0,.14.02.29,0,.43-.02.38-.05.77-.1,1.13-.02.14-.07.26-.1.41-.02.1-.02.19-.05.29-.02.31-.05.65-.02.98,0,.1,0,.22.02.31.05.17,0,.31-.02.46s0,.29-.02.43c0,.14,0,.29-.02.46,0,.12-.02.24-.05.34,0,.12-.02.22-.02.31-.02.1-.02.22-.02.31l.07.29c.05.24.07.46.05.7-.02.36-.1.72-.05,1.08.02.05,0,.1,0,.12-.02.17-.02.34-.05.5-.02.07,0,.17.02.24.02.22.05.41.1.62.02.12.02.24,0,.36-.02.14-.1.26-.19.34-.14.12-.31.14-.48.17-.1,0-.14-.05-.14-.14-.02-.12,0-.24,0-.36v-.31c0-.36,0-.7.02-1.06.05-.41.02-.79.02-1.2,0-.07.02-.14.02-.22.05-.31.02-.62-.05-.94-.05-.24-.05-.46,0-.7.02-.14.02-.31.05-.46.02-.07.02-.12.02-.19.02-.12.05-.24.05-.36.02-.12.02-.26.02-.38.02-.26,0-.55,0-.82,0-.12-.02-.22-.02-.34v-.41c0-.24.02-.48.02-.72.02-.26.05-.53.05-.82,0-.19.02-.41-.02-.62-.05-.29-.07-.58-.1-.86,0-.19.02-.41.05-.6.1-.46.12-.94.1-1.42,0-.22-.02-.43-.05-.65-.02-.05-.02-.1-.02-.14,0-.12.02-.24-.02-.36-.02-.02-.02-.05-.02-.07,0-.14-.05-.29-.1-.43-.05-.1-.07-.19-.02-.31.02-.05,0-.12.02-.14.02-.05.1-.07.12-.1.07-.05.12-.12.17-.17.07-.1.17-.17.31-.17.05.02.1,0,.12-.02.12,0,.22,0,.26.12,0,.02.05.05.07.07.12.1.17.24.17.38-.02.07,0,.12.02.19.05.07.07.17.1.26.02.17.1.31.14.48.1.22.24.43.34.65.05.19.14.36.19.53.05.07.07.17.07.24.05.17.1.34.12.48.02.12.07.22.1.31.02.22.14.41.17.62,0,.1.02.17.07.26.05.14.12.29.19.43l.22.5s.02.07.05.12c.1.17.17.36.22.55.07.34.24.65.38.96l.02.1c.07.24.17.43.24.65.07.19.14.36.19.55.02.14.07.29.14.43.07.1.07.26.12.38,0,.05.02.1.05.14l.07.31c.02.1.02.22.07.34.02.02.02.05.02.07.02.12.05.24.14.34.02.05.05.12.05.17.05.24.17.46.24.67,0,.07.02.14.05.19,0,.02.02.05.05.05s.05-.02.05-.05c.02-.07,0-.14.02-.22.05-.26.05-.5.07-.77l.07-.65c.05-.24.07-.5.12-.74.05-.29.05-.58.05-.86.02-.43.07-.86.1-1.3.02-.31.07-.6.1-.91h-.02Z"/>
      <path class="cls-1" d="M30.54,10.37v-1.3c0-.24,0-.46.07-.7l.05-.41s0-.1.02-.14c.02-.12.05-.26.02-.38,0-.24.07-.46.1-.67.02-.22.07-.41.1-.62.02-.12.05-.24.1-.36.07-.22.1-.46.17-.67,0-.05.02-.1.05-.14.07-.29.17-.58.26-.84,0-.02.02-.05.02-.07.12-.17.14-.36.22-.55.07-.19.14-.38.26-.55.05-.07.07-.14.12-.22l.29-.41c.05-.07.12-.14.19-.19l.17-.17c.22-.17.41-.34.62-.48.22-.12.46-.24.72-.34.29-.1.6-.05.91-.02.1,0,.22.05.31.07.07.02.14.05.22.1.05.02.1.07.17.1l.1.07c.17.1.22.26.24.46v.1c0,.19-.1.34-.24.41-.05.02-.07.05-.1.07-.12.07-.12.05-.24-.02-.02-.05-.07-.07-.12-.07-.1-.05-.22-.07-.31-.12-.24-.1-.5-.07-.74,0-.07.02-.12.05-.19.02h-.05c-.1.07-.22.1-.29.19-.02.05-.05.1-.12.12-.17.05-.29.14-.38.31-.02.02-.07.07-.12.1-.07.05-.14.12-.17.19l-.22.46c-.02.1-.07.19-.1.29-.05.14-.1.31-.14.46l-.07.24c-.05.17-.12.31-.17.48-.1.26-.14.53-.17.79-.02.17-.05.31-.12.46v.02c-.02.19-.07.38-.1.58,0,.12-.02.22-.05.34-.02.41-.05.84-.1,1.25-.02.24-.02.5-.05.74,0,.22.02.43.02.62-.02.22-.02.43,0,.65.02.46.05.91.02,1.37,0,.05.02.1.02.14.07.24.07.48.17.72.02.07,0,.17.02.24l.22.62c.12.24.26.48.46.7,0,.02.02.05.05.05.17.1.29.26.48.31.12.05.24.1.36.12.19.02.38.05.53-.1.12-.1.24-.19.34-.29.1-.07.17-.19.24-.29l.1-.17c.12-.14.22-.31.29-.48l.24-.43c.17-.34.29-.7.38-1.08l.14-.43s.02-.05.02-.1c.02-.14.05-.31.07-.48l.07-.38c.05-.14.1-.31.12-.48.05-.22.1-.46.17-.7,0-.02,0-.05.02-.07,0-.1.02-.19.05-.29v-.12c0-.14,0-.31.05-.46.02-.02.02-.07.02-.12v-.14c.02-.17.07-.34.1-.5v-.02c-.02-.17-.02-.34.02-.48-.05-.12,0-.22,0-.34,0-.14-.07-.22-.22-.22-.17,0-.34-.02-.5.05h-.07c-.1-.02-.19,0-.26.05-.1.02-.17.1-.29.1-.02,0-.05,0-.05.02-.1.12-.24.07-.36.12-.02.02-.07,0-.1,0-.07-.05-.14-.12-.19-.17-.07-.07-.12-.14-.17-.22-.05-.1-.1-.22-.1-.34.02-.07.05-.12.12-.17l.24-.1c.12-.05.24-.05.34-.07.19-.07.41-.12.6-.14l.72-.07c.17,0,.26-.07.38-.14.05,0,.07-.05.1-.07.05,0,.1-.02.12-.02.17.02.31.12.41.24.05.07.05.17.07.26.02.02,0,.07.02.1.12.22.12.46.12.67v.38c0,.07,0,.14.02.22v.1c-.02.26-.02.53-.07.82-.02.31-.05.65-.1.96-.02.22-.1.43-.14.65l-.07.46c0,.07-.02.14-.02.19-.02.1-.05.17-.05.24-.02.05-.02.07-.02.1-.05.19-.12.38-.14.58-.05.24-.12.46-.17.7,0,.1-.07.19-.07.29-.05.26-.19.5-.29.74-.05.14-.1.29-.17.43l-.14.24c-.07.1-.07.19-.02.29.05.07.05.14,0,.24-.02,0-.02.02-.02.05-.05.17-.12.31-.31.38l-.02.02c-.1.17-.26.29-.36.43-.14.19-.38.24-.53.38-.22.19-.48.17-.72.22-.19.02-.36-.02-.55-.05h-.1c-.12,0-.22,0-.31-.05-.17-.05-.34-.1-.48-.22l-.19-.07c-.12-.02-.22-.1-.29-.19l-.1-.1c-.12-.1-.26-.19-.36-.34-.02-.05-.07-.1-.12-.14-.05-.05-.1-.1-.12-.17-.07-.14-.14-.29-.24-.43-.12-.14-.19-.34-.24-.53l-.1-.24c-.05-.14-.1-.29-.1-.43.02-.22-.05-.43-.1-.65-.02-.07-.02-.17-.05-.24,0-.12-.02-.26-.02-.41v-1.27ZM32.82,15.53l-.02-.02-.02.02h.05Z"/>
      <path class="cls-1" d="M38.91,12.7c0-.34-.02-.65-.02-.98,0-.07.02-.14.02-.22v-.12c-.05-.22-.05-.43,0-.65v-.02c-.02-.46.02-.89,0-1.32,0-.17.05-.34.05-.5,0-.14.07-.31.02-.48-.02-.07.02-.17.02-.26,0-.24.02-.48.05-.7,0-.24.02-.46,0-.7,0-.14.02-.29.05-.43,0-.05.02-.1.02-.17.02-.17.02-.34.05-.5v-.14c0-.26.02-.53.07-.77.02-.12,0-.24,0-.36.02-.29.05-.58.12-.84v-.29c-.02-.26.05-.5.1-.74.02-.1.05-.19.05-.29,0-.19,0-.38.05-.55.02-.1,0-.22,0-.31v-.26c.02-.14.07-.19.22-.19.1,0,.19.02.29.07.05.07.12.07.19.05h.14s.12-.02.17-.02h.65s.05,0,.07.02c.19.07.41.05.6.02.14-.02.29-.02.43-.05.17-.02.36-.05.53-.05.26-.02.5-.02.74-.02.19.1.41.1.5.31,0,.02.05.07.07.1.1.1.12.24.07.36-.02.12-.07.24-.14.34-.02.07-.07.1-.14.1s-.14,0-.19-.05c-.17-.1-.34-.05-.48-.05-.1,0-.19,0-.29-.02-.1-.02-.19-.02-.29,0-.22.02-.43,0-.62.1h-.1c-.14-.02-.29,0-.43-.07-.05-.02-.07-.02-.12-.02-.12.02-.24.02-.38.02-.17,0-.36.02-.55.05-.07,0-.12.05-.12.1,0,.1-.07.22-.02.31.02.05.02.07.02.1-.05.14-.02.31-.07.46-.02.07-.02.17-.02.24,0,.12-.07.22-.07.34,0,.1-.02.19-.02.26,0,.17-.02.34,0,.5,0,.05,0,.12-.02.19-.05.14-.1.29-.07.46,0,.07-.02.14-.02.24v.05c.02.17,0,.34,0,.5,0,.1.02.12.12.1.31-.05.65-.07.96-.1.1,0,.22-.02.31-.02.12,0,.24-.02.34-.02.29-.02.58-.02.84-.02.12-.02.24.02.34.07.17.07.29.19.38.31s.14.24.07.38c-.05.14-.12.22-.19.34-.05.07-.12.1-.19.07-.02-.02-.05-.02-.07-.02-.12-.14-.29-.14-.46-.14-.14.02-.29,0-.43,0-.07,0-.14.02-.19.02-.05.02-.1.02-.14.02-.07-.02-.17-.05-.24-.02-.05.02-.12.02-.17.02-.14,0-.26.02-.41.02-.19.02-.36.02-.55.05-.14,0-.26.1-.36.17-.07.05-.07.12-.07.17,0,.17-.02.34,0,.48v.12c.05.1.05.17.02.29-.02.22-.05.41-.07.62v.12c.05.07.05.17.02.24-.05.19-.05.36-.02.55,0,.07-.02.12-.02.19v.55c0,.1.02.17.05.26.05.12-.07.22-.02.34.07.12.02.22.02.31,0,.17,0,.34.02.48.02.12.02.22,0,.31-.02.1-.05.19.02.29v.07c-.07.1-.05.19-.02.31,0,.24.02.48.02.72,0,.1,0,.17.02.24.07.17.05.31.05.48,0,.1,0,.19.02.29v.22c0,.12.05.19.19.19.22-.02.43-.02.67-.05.14,0,.31.02.48,0,.31,0,.65-.02.98-.07.19-.05.38-.1.58-.19.12-.05.22-.12.34-.14s.24,0,.34,0c.07,0,.12.05.19.05.12.05.24.07.34.17.05.05.12.1.19.14.05.05.07.1.05.17-.05.14-.07.29-.12.43-.02.07-.07.14-.14.19-.1.1-.14.1-.26,0-.12-.07-.24-.07-.36-.02l-.53.22c-.12.05-.24.05-.36.05-.12.02-.22,0-.34,0h-.07c-.31.1-.62.07-.96,0h-.17c-.22.05-.46.05-.7.05h-.07c-.12-.1-.24-.05-.34,0-.1.05-.19.02-.29-.02l-.02-.02-.36-.41s-.02-.02-.02-.05c-.02-.17-.07-.31-.12-.48l-.1-.53c-.02-.24-.07-.46-.07-.7,0-.22-.05-.43-.07-.65,0-.1-.02-.22-.02-.31Z"/>
      <path class="cls-1" d="M48.16,15.15l.62-.07c.12,0,.24-.02.38-.02h.02c.22-.1.46-.02.67.02.07,0,.12.02.19.02.12.05.14.1.12.24-.05.31-.31.38-.58.43-.24.07-.48.07-.72.12h-.86c-.34,0-.67-.02-1.01-.02-.1,0-.22,0-.29-.07-.05-.02-.1-.07-.14-.12-.07-.12-.17-.19-.24-.29-.05-.02-.07-.05-.05-.1v-.07c-.02-.19-.07-.38-.1-.58-.02-.07-.02-.14-.02-.22,0-.46,0-.91-.02-1.34l-.07-1.32c0-.36-.02-.72-.05-1.08-.05-.29-.05-.55-.07-.84,0-.14.02-.26-.05-.41-.02-.1-.02-.19-.02-.29,0-.29-.05-.6-.02-.89.02-.26.02-.53.02-.82,0-.48-.02-.96,0-1.44,0-.26,0-.53.05-.79.02-.22,0-.43,0-.62.02-.36.02-.7.05-1.03,0-.14,0-.26.02-.38v-.14c.02-.22.07-.41.1-.62,0-.05-.02-.07,0-.12.05-.07.05-.19.05-.29.02-.19.02-.38.02-.58.02-.14.05-.29.05-.41-.02-.14.02-.19.12-.26.14-.1.29-.1.46-.1h.22c.07,0,.14,0,.22.07.14.1.26.19.38.29.02.02.05.05.05.07.02.14.07.31,0,.48-.02.05-.05.12-.02.19.02.05,0,.1-.05.12-.12.1-.14.24-.17.38-.02.07-.05.17-.07.26v.07c.07.14,0,.29.05.43-.05.31.05.6-.05.91-.05.12-.05.26-.05.38,0,.07.02.12.05.17.02.07.02.14,0,.22,0,.07-.02.12,0,.19.05.17,0,.31.02.48,0,.05-.02.07-.02.12-.02.07-.02.14-.02.22v.62c0,.07-.02.14-.02.22s0,.14-.02.22v.1s0,.12,0,.17c-.02.05-.02.12,0,.17.05.14.05.29.05.43,0,.12.02.24,0,.36,0,.12-.02.22-.05.34,0,.05-.02.1-.02.14.05.14,0,.29-.02.41-.02.1-.02.17,0,.24.02.05.02.12,0,.17-.02.1,0,.19.02.29.02.1.05.17.02.24,0,.1.02.19.02.29,0,.07,0,.14-.02.24v.07c.05.14.02.29.02.43.02.14.02.26.02.41-.02.17,0,.31,0,.48,0,.02,0,.05.02.07.02.1.02.19,0,.29,0,.05-.02.1-.02.14.02.22,0,.43,0,.67,0,.07,0,.14.05.19.02.02.02.05.02.07-.02.12-.02.24-.02.36-.02.14,0,.29.02.41,0,.17.02.34,0,.48,0,.19.02.36.02.53.02.1.05.12.17.14.19,0,.38.02.58.05Z"/>
      <path class="cls-1" d="M51.75,6.19c0-.07.02-.24.02-.38.02-.12.02-.26.05-.41,0-.07,0-.14.02-.24,0-.14,0-.29.02-.43.05-.17,0-.36,0-.55.02-.36.02-.7.02-1.06,0-.22-.05-.41-.05-.6s-.07-.38-.05-.6c.02-.02,0-.07-.02-.1-.02-.07-.02-.17-.02-.26,0-.02,0-.05.02-.07l.26-.36c.07-.12.19-.14.31-.12q.29.05.43.31l.29.5c.02.07.02.14-.02.22-.02.02-.02.07-.02.12l.07.7c.02.26.02.5.02.77v.89s.02.1.02.14v.26s-.02.05-.02.07c.05.24,0,.48-.02.72-.02.17-.02.36-.05.53-.02.1-.02.19-.02.29.02.17.02.34.05.53,0,.14.02.29.02.43-.02.26-.05.53-.05.79v.14c-.1.58-.02,1.13-.05,1.7,0,.05-.02.1-.02.14-.02.05-.05.1-.05.12.02.14,0,.29.02.43.02.14,0,.29,0,.41,0,.07-.02.17-.02.24v.86c0,.07.02.14.02.22,0,.02.02.05,0,.05-.05.22,0,.43-.02.65,0,.12-.02.22-.05.34v.48c-.02.07-.02.14-.02.22v.6c0,.1,0,.19-.02.29-.05.1-.05.19-.12.26-.02.02-.02.07-.05.1-.05.17-.1.22-.24.22-.07,0-.14.02-.22.07-.07.05-.17,0-.22-.05-.12-.1-.22-.19-.29-.31-.05-.07-.07-.14-.07-.22-.02-.19-.02-.38-.02-.58,0-.1.02-.19.02-.29v-1.7c0-.1-.02-.22-.02-.34v-.17c0-.41,0-.79.02-1.2,0-.29,0-.6.02-.89.05-.26.02-.53.02-.82.02-.24.02-.5.05-.77,0-.19.02-.38.05-.58v-.29c0-.29,0-.55-.02-.84-.02-.17,0-.36,0-.6Z"/>
      <path class="cls-1" d="M60.25,6.07c0-.22,0-.46.02-.67l.1-.74c0-.14.02-.26.02-.38.02-.29.05-.55.05-.82,0-.34-.02-.67-.02-1.01v-.74c.02-.17.02-.31.02-.48,0-.02,0-.1-.02-.12-.07-.07-.05-.17-.07-.26-.02-.02,0-.07,0-.07.02-.1.05-.17.1-.24.05-.07.1-.14.19-.17.05-.02.1-.05.14-.07l.17-.07c.1,0,.19.02.29.02.07.12.24.19.29.36.02.07.07.17.1.26.02.1,0,.17-.02.26-.07.12-.12.26-.1.41,0,.07-.02.14-.02.22,0,.05-.02.07,0,.12.05.29,0,.55.02.84v.79c.02.07.02.14.02.22,0,.1-.02.17-.02.26-.05.26-.1.53-.12.79v.12c0,.1-.02.17-.07.22-.02.05-.02.1-.02.14.05.19.02.38,0,.6,0,.02-.02.05,0,.07.02.1,0,.22,0,.31-.02.26-.02.5-.05.74,0,.17-.02.34-.05.5,0,.19-.02.38-.02.58,0,.26.02.53-.02.77-.02.29-.02.55-.1.84-.05.19-.07.38-.1.6-.02.14-.02.31-.02.46,0,.17-.02.31-.05.46v.07c.02.26-.07.53-.12.79-.02.29-.1.58-.1.86,0,.07-.02.14-.05.22,0,.07,0,.17-.02.24,0,.1,0,.19-.02.29v.7c0,.17.05.36.07.53.02.14-.02.29-.05.43-.02.05-.02.07-.02.12,0,.12-.05.19-.17.24-.14.05-.31.12-.5.12-.05,0-.1-.02-.14-.07-.07-.1-.14-.17-.19-.24-.05-.07-.1-.12-.12-.19-.1-.29-.22-.58-.34-.86s-.24-.55-.34-.84c-.07-.17-.17-.34-.24-.5-.07-.19-.17-.38-.19-.6-.05-.29-.17-.55-.29-.82-.1-.22-.17-.46-.22-.7-.02-.12-.05-.24-.1-.34-.12-.31-.19-.65-.29-.96-.05-.24-.12-.48-.19-.72-.05-.12-.07-.24-.12-.38l-.14-.46c-.07-.22-.17-.41-.24-.62-.02-.12-.07-.26-.12-.38l-.22-.58c-.02-.07-.02-.14-.05-.22-.02-.12-.05-.26-.1-.38-.02-.12-.1-.22-.14-.34-.05-.1-.1-.19-.12-.31-.07-.14-.1-.29-.14-.43-.07-.17-.12-.36-.19-.53,0-.02-.02-.07-.05-.05-.02,0-.02.05-.02.07,0,.12.02.24.05.36.02.17.05.34.05.5,0,.14.02.29,0,.43-.02.38-.05.77-.1,1.13-.02.14-.07.26-.1.41-.02.1-.02.19-.05.29-.02.31-.05.65-.02.98,0,.1,0,.22.02.31.05.17,0,.31-.02.46-.02.14,0,.29-.02.43,0,.14,0,.29-.02.46,0,.12-.02.24-.05.34,0,.12-.02.22-.02.31-.02.1-.02.22-.02.31l.07.29c.05.24.07.46.05.7-.02.36-.1.72-.05,1.08.02.05,0,.1,0,.12-.02.17-.02.34-.05.5-.02.07,0,.17.02.24.02.22.05.41.1.62.02.12.02.24,0,.36-.02.14-.1.26-.19.34-.14.12-.31.14-.48.17-.1,0-.14-.05-.14-.14-.02-.12,0-.24,0-.36v-.31c0-.36,0-.7.02-1.06.05-.41.02-.79.02-1.2,0-.07.02-.14.02-.22.05-.31.02-.62-.05-.94-.05-.24-.05-.46,0-.7.02-.14.02-.31.05-.46.02-.07.02-.12.02-.19.02-.12.05-.24.05-.36.02-.12.02-.26.02-.38.02-.26,0-.55,0-.82,0-.12-.02-.22-.02-.34v-.41c0-.24.02-.48.02-.72.02-.26.05-.53.05-.82,0-.19.02-.41-.02-.62-.05-.29-.07-.58-.1-.86,0-.19.02-.41.05-.6.1-.46.12-.94.1-1.42,0-.22-.02-.43-.05-.65-.02-.05-.02-.1-.02-.14,0-.12.02-.24-.02-.36-.02-.02-.02-.05-.02-.07,0-.14-.05-.29-.1-.43-.05-.1-.07-.19-.02-.31.02-.05,0-.12.02-.14.02-.05.1-.07.12-.1.07-.05.12-.12.17-.17.07-.1.17-.17.31-.17.05.02.1,0,.12-.02.12,0,.22,0,.26.12,0,.02.05.05.07.07.12.1.17.24.17.38-.02.07,0,.12.02.19.05.07.07.17.1.26.02.17.1.31.14.48.1.22.24.43.34.65.05.19.14.36.19.53.05.07.07.17.07.24.05.17.1.34.12.48.02.12.07.22.1.31.02.22.14.41.17.62,0,.1.02.17.07.26.05.14.12.29.19.43l.22.5s.02.07.05.12c.1.17.17.36.22.55.07.34.24.65.38.96l.02.1c.07.24.17.43.24.65.07.19.14.36.19.55.02.14.07.29.14.43.07.1.07.26.12.38,0,.05.02.1.05.14l.07.31c.02.1.02.22.07.34.02.02.02.05.02.07.02.12.05.24.14.34.02.05.05.12.05.17.05.24.17.46.24.67,0,.07.02.14.05.19,0,.02.02.05.05.05s.05-.02.05-.05c.02-.07,0-.14.02-.22.05-.26.05-.5.07-.77l.07-.65c.05-.24.07-.5.12-.74.05-.29.05-.58.05-.86.02-.43.07-.86.1-1.3.02-.31.07-.6.1-.91h-.02Z"/>
      <path class="cls-1" d="M63.08,12.7c0-.34-.02-.65-.02-.98,0-.07.02-.14.02-.22v-.12c-.05-.22-.05-.43,0-.65v-.02c-.02-.46.02-.89,0-1.32,0-.17.05-.34.05-.5,0-.14.07-.31.02-.48-.02-.07.02-.17.02-.26,0-.24.02-.48.05-.7,0-.24.02-.46,0-.7,0-.14.02-.29.05-.43,0-.05.02-.1.02-.17.02-.17.02-.34.05-.5v-.14c0-.26.02-.53.07-.77.02-.12,0-.24,0-.36.02-.29.05-.58.12-.84v-.29c-.02-.26.05-.5.1-.74.02-.1.05-.19.05-.29,0-.19,0-.38.05-.55.02-.1,0-.22,0-.31v-.26c.02-.14.07-.19.22-.19.1,0,.19.02.29.07.05.07.12.07.19.05h.14s.12-.02.17-.02h.65s.05,0,.07.02c.19.07.41.05.6.02.14-.02.29-.02.43-.05.17-.02.36-.05.53-.05.26-.02.5-.02.74-.02.19.1.41.1.5.31,0,.02.05.07.07.1.1.1.12.24.07.36-.02.12-.07.24-.14.34-.02.07-.07.1-.14.1s-.14,0-.19-.05c-.17-.1-.34-.05-.48-.05-.1,0-.19,0-.29-.02-.1-.02-.19-.02-.29,0-.22.02-.43,0-.62.1h-.1c-.14-.02-.29,0-.43-.07-.05-.02-.07-.02-.12-.02-.12.02-.24.02-.38.02-.17,0-.36.02-.55.05-.07,0-.12.05-.12.1,0,.1-.07.22-.02.31.02.05.02.07.02.1-.05.14-.02.31-.07.46-.02.07-.02.17-.02.24,0,.12-.07.22-.07.34,0,.1-.02.19-.02.26,0,.17-.02.34,0,.5,0,.05,0,.12-.02.19-.05.14-.1.29-.07.46,0,.07-.02.14-.02.24v.05c.02.17,0,.34,0,.5,0,.1.02.12.12.1.31-.05.65-.07.96-.1.1,0,.22-.02.31-.02.12,0,.24-.02.34-.02.29-.02.58-.02.84-.02.12-.02.24.02.34.07.17.07.29.19.38.31s.14.24.07.38c-.05.14-.12.22-.19.34-.05.07-.12.1-.19.07-.02-.02-.05-.02-.07-.02-.12-.14-.29-.14-.46-.14-.14.02-.29,0-.43,0-.07,0-.14.02-.19.02-.05.02-.1.02-.14.02-.07-.02-.17-.05-.24-.02-.05.02-.12.02-.17.02-.14,0-.26.02-.41.02-.19.02-.36.02-.55.05-.14,0-.26.1-.36.17-.07.05-.07.12-.07.17,0,.17-.02.34,0,.48v.12c.05.1.05.17.02.29-.02.22-.05.41-.07.62v.12c.05.07.05.17.02.24-.05.19-.05.36-.02.55,0,.07-.02.12-.02.19v.55c0,.1.02.17.05.26.05.12-.07.22-.02.34.07.12.02.22.02.31,0,.17,0,.34.02.48.02.12.02.22,0,.31-.02.1-.05.19.02.29v.07c-.07.1-.05.19-.02.31,0,.24.02.48.02.72,0,.1,0,.17.02.24.07.17.05.31.05.48,0,.1,0,.19.02.29v.22c0,.12.05.19.19.19.22-.02.43-.02.67-.05.14,0,.31.02.48,0,.31,0,.65-.02.98-.07.19-.05.38-.1.58-.19.12-.05.22-.12.34-.14s.24,0,.34,0c.07,0,.12.05.19.05.12.05.24.07.34.17.05.05.12.1.19.14.05.05.07.1.05.17-.05.14-.07.29-.12.43-.02.07-.07.14-.14.19-.1.1-.14.1-.26,0-.12-.07-.24-.07-.36-.02l-.53.22c-.12.05-.24.05-.36.05-.12.02-.22,0-.34,0h-.07c-.31.1-.62.07-.96,0h-.17c-.22.05-.46.05-.7.05h-.07c-.12-.1-.24-.05-.34,0-.1.05-.19.02-.29-.02l-.02-.02-.36-.41s-.02-.02-.02-.05c-.02-.17-.07-.31-.12-.48l-.1-.53c-.02-.24-.07-.46-.07-.7,0-.22-.05-.43-.07-.65,0-.1-.02-.22-.02-.31Z"/>
    </g>
  </g>
</svg>