<?xml version="1.0" encoding="UTF-8"?>
<svg id="Calque_2" data-name="Calque 2" xmlns="http://www.w3.org/2000/svg" viewBox="0 0 85.23 23.91">
  <defs>
    <style>
      .cls-1 {
        fill: #ed1c24;
      }

      .cls-2 {
        fill: #fff;
      }
    </style>
  </defs>
  <g id="Landing_page" data-name="Landing page">
    <g id="Instagram_Logo" data-name="Instagram Logo">
      <g>
        <path class="cls-2" d="M69.67,2.81c2.85.21,5.67.13,8.52.09,1.28-.02,2.72.05,3.74.94s1.33,2.64,1.56,3.93c.47,2.65.19,5.44.14,8.12-.03,1.22.17,2.7-.54,3.76s-1.97,1.62-3.21,1.87c-2.7.54-5.63.2-8.36.12-1.22-.03-2.44-.03-3.66-.14-1.33-.11-2.2-.81-2.75-2.02-1.01-2.22-.76-5.03-.73-7.41.02-1.33.06-2.67.15-4s.27-2.65,1.21-3.68c1.89-2.09,5.48-1.67,8.02-1.78,1.6-.07,3.2-.14,4.8-.05,1.33.08,2.77.2,3.68,1.3l1.06-1.06c-1.43-1.27-3.24-1.54-5.08-1.66-2.47-.15-4.96-.22-7.43-.07-1.79.11-3.69.36-5.17,1.45-1.61,1.18-2.1,3.07-2.46,4.94-.18.94,1.26,1.35,1.45.4.32-1.68.68-3.43,2.26-4.37,1.39-.82,3.14-.89,4.71-.96,1.9-.08,3.8-.04,5.7.06,1.69.08,3.63.08,4.96,1.27.73.65,1.67-.32,1.06-1.06-1.79-2.17-5.45-1.84-7.94-1.76-1.7.05-3.39.12-5.09.22-1.36.08-2.74.24-3.98.85-2.69,1.34-3.18,4.03-3.31,6.76-.16,3.18-.45,6.68.29,9.8.27,1.14.78,2.3,1.63,3.13.92.89,2.05,1.14,3.29,1.22,3.33.21,6.77.37,10.1.17,2.56-.15,5.55-.96,6.53-3.64.52-1.42.31-3.18.34-4.67.04-1.67.13-3.36.06-5.03-.12-3.07-.76-7.02-4.07-8.12-1.72-.57-3.6-.3-5.37-.26-2.04.04-4.07-.02-6.1-.17-.96-.07-.96,1.43,0,1.5h0Z"/>
        <path class="cls-2" d="M72.35,8.69c1.53-.24,3.76-.54,4.77.99s.83,3.53-.1,5.02c-.8,1.28-2.37,1.91-3.85,1.64-.81-.15-1.44-.51-1.91-1.19s-.9-1.46-1.09-2.3-.11-1.82.43-2.55,1.38-1.17,2.15-1.61c.6-.34.4-1.16-.18-1.37s-1.15-.03-1.62.31c-.42.31-.69.79-1.15,1.03l.91,1.18c1.48-1.69,4.21-2.68,5.99-.82.87.91.83,2.29.83,3.47s-.3,2.56-1.5,3.11c-.37.17-.46.7-.27,1.03.22.38.66.44,1.03.27,1.56-.71,2.17-2.45,2.24-4.05s-.01-3.49-1.17-4.79c-1-1.12-2.58-1.69-4.07-1.53-1.62.17-3.07,1.04-4.13,2.25-.56.64.13,1.57.91,1.18.35-.18.63-.44.89-.73.19-.21.43-.57.73-.46l-.18-1.37c-.92.52-1.85,1.08-2.52,1.92s-.98,1.99-.88,3.1c.18,2.11,1.53,4.54,3.62,5.23,1.93.63,4.28.07,5.6-1.51.71-.85,1.18-1.91,1.38-3,.23-1.26.02-2.47-.49-3.63s-1.47-1.91-2.66-2.27c-1.34-.4-2.75-.19-4.1.02-.4.06-.62.56-.52.92.12.43.52.59.92.52h0Z"/>
        <path class="cls-2" d="M80.38,5.03c-.11-.01-.22-.02-.33-.01s-.22.02-.33.04-.22.07-.32.12c-.1.04-.18.11-.26.18s-.15.16-.22.26c-.12.18-.19.44-.17.66,0,.11.02.23.06.34s.08.22.15.32c.13.2.3.36.5.48.16.09.33.15.51.19.12.02.24.04.35.05.13,0,.25-.01.38-.03.03,0,.06-.01.1-.02.09-.03.19-.07.27-.12.15-.09.27-.21.37-.36.19-.3.21-.73.02-1.03-.1-.16-.26-.29-.45-.34s-.42-.03-.58.08-.3.26-.34.45-.03.41.08.58c0,0,.01.02.02.03l-.08-.18s.01.04.02.06l-.03-.2s0,.04,0,.06l.03-.2s0,.04-.02.06l.08-.18s-.02.05-.04.07l.12-.15s-.04.04-.06.06l.15-.12s-.05.03-.08.05l.18-.08s-.09.03-.13.03l.2-.03c-.09.01-.18,0-.28,0l.2.03c-.1-.01-.2-.04-.3-.08l.18.08c-.07-.03-.13-.06-.18-.1l.15.12s-.08-.07-.12-.12l.12.15s-.06-.09-.08-.14l.08.18s-.03-.09-.04-.13l.03.2s0-.09,0-.14l-.03.2s.02-.08.03-.11l-.08.18s.03-.06.05-.09l-.12.15s.05-.05.08-.08l-.15.12s.07-.05.11-.06l-.18.08c.06-.02.13-.04.19-.05l-.2.03c.14-.02.28-.01.41,0,.1,0,.2-.02.29-.06.09-.03.17-.08.24-.16.13-.13.23-.34.22-.53s-.07-.4-.22-.53l-.15-.12c-.12-.07-.24-.1-.38-.1h0Z"/>
      </g>
    </g>
    <g id="Checkout_My_Insta" data-name="Checkout My Insta">
      <path class="cls-1" d="M28.72,20.9c.04-.42.02-.84,0-1.26,0-.19-.02-.38-.01-.57,0-.1,0-.21.01-.31.01-.11,0-.03.01-.09.06-.3.1-.47.28-.7-.06.08.09-.08.09-.08-.07.06.04-.03.07-.04.04-.02.13-.05.19-.04.13.01,0-.01.07,0,.06.02.13.03.19.06-.1-.04.11.07.11.07.08.05.04.02.08.06.19.17.33.36.39.56.2.68.1,1.39-.01,2.08-.07.4.1.81.52.92.38.1.83-.13.92-.52.16-.65.05-1.29.07-1.95,0-.2.03-.39.14-.52-.03.04.09-.08.11-.1-.08.05.05-.02.08-.03.13-.05-.16.05.08-.02l.08-.02c-.06,0-.06,0,0,0,.21-.01.33.01.51.15.15.11.3.32.41.53.24.51.2,1.22.1,1.81l1.45.4c.11-.83.24-1.71-.08-2.52-.27-.68-.81-1.32-1.57-1.46s-1.58.21-2,.89c-.05.08-.08.16-.11.24,0,.01-.08.24-.05.11-.15.25.06.23.65-.05l-.06-.06c-.06-.08-.15-.16-.22-.24-.24-.28-.45-.57-.65-.89-.51-.82-1.77-.09-1.3.76.52.93.86,1.96.97,3.01.04.4.31.75.75.75s.72-.34.75-.75c.04-.52.08-1.08.36-1.54.1-.16.21-.27.41-.36,0,0,.2-.05.13-.04.05,0,.11,0,.16,0-.14-.02.1.06,0,.01.36.18.81.1,1.03-.27.19-.33.09-.84-.27-1.03-.86-.43-1.86-.16-2.48.56s-.75,1.72-.83,2.66h1.5c-.15-1.33-.53-2.6-1.18-3.77l-1.3.76c.21.33.43.64.67.94.22.28.46.59.78.77.41.23.91.14,1.23-.2.15-.15.21-.33.29-.52.07-.14-.06.03.06-.1-.05.06.05-.06.06-.07.09-.08-.11.05.08-.06.09-.05.02-.02.08-.04.02,0,.18-.04.08-.02h.08c-.05-.01-.05,0,0,0,.17.04.27.13.38.31.3.49.23,1.2.15,1.81-.05.4.1.81.52.92.36.1.85-.12.92-.52.17-1,.21-2.03-.25-2.96-.39-.79-1.16-1.38-2.05-1.42s-1.73.53-2.01,1.39c-.25.77.04,1.65-.13,2.35l1.45.4c.16-1,.33-2.08-.05-3.06-.35-.88-1.16-1.62-2.14-1.68s-1.75.71-2.05,1.6c-.34.98-.06,2-.16,3-.04.4.37.75.75.75.44,0,.71-.35.75-.75h0Z"/>
      <path class="cls-1" d="M48.26,16.87c-.83.53-1.34,1.39-1.42,2.37s.43,1.96,1.25,2.52c.92.62,2.18.58,3.03-.14.43-.36.63-.9.72-1.44.09-.59.2-1.21.23-1.81.04-.71-.34-1.33-1.02-1.57-.52-.19-1.11-.1-1.63.01-.71.16-.72,1.29,0,1.45.3.07.6.09.91.08.15,0,.3,0,.45,0,.09,0,.11.02.21.03-.02-.02-.01-.01.03.01.06.03.05.02-.01-.03.02.07.02.04,0-.02.06.12,0-.08,0,0,0,.03.02.08.03.12.02.08,0-.12,0,.03,0,.05,0,.1.01.14,0,.13.02.26.03.39.13,1.2.76,2.22,1.7,2.96l.91-1.18c-.45-.25-.9-.49-1.34-.74-.35-.2-.82-.09-1.03.27s-.09.83.27,1.03c.45.25.9.49,1.34.74.35.2.82.09,1.03-.27s.09-.83-.27-1.03c-.45-.25-.9-.49-1.34-.74-.35-.2-.82-.09-1.03.27s-.09.83.27,1.03c.45.25.9.49,1.34.74.33.18.74.11.97-.19.2-.27.24-.75-.06-.98-.43-.34-.76-.68-1-1.13-.12-.22-.19-.44-.25-.71-.02-.08-.02-.15-.03-.3,0-.12-.01-.24-.03-.36-.06-.6-.28-1.12-.86-1.38-.34-.15-.69-.2-1.06-.2-.14,0-.27,0-.41,0-.16,0-.28-.01-.38-.03v1.45c.1-.02.19-.04.29-.06-.13.02.15,0,.18,0,.04,0,.32.03.17,0,.05,0,.09.02.13.03-.07-.04-.07-.04,0,0-.06-.06-.06-.06,0,0-.03-.02-.04-.04-.04-.08.05.03.02.11.01.21-.01.26-.06.52-.1.78-.06.42-.05.88-.26,1.24-.05.07-.06.08-.02.03-.03.04-.07.07-.11.11.08-.06-.14.08-.17.09.09-.04-.16.05-.19.06-.09.02-.1.02-.04.01-.05,0-.11,0-.16,0-.05,0-.11,0-.16,0,.07,0,.05,0-.04-.01-.03,0-.27-.09-.21-.06-.22-.1-.29-.15-.44-.3-.12-.12-.14-.17-.24-.35-.04-.08-.04-.08,0-.01-.02-.04-.03-.09-.04-.13-.03-.09-.05-.18-.06-.27.02.17,0-.12,0-.15s.03-.31,0-.15c.02-.09.04-.18.06-.27,0-.03.11-.28.05-.15.04-.09.09-.17.14-.25.03-.04.05-.08.08-.12-.05.06-.04.05.02-.01.07-.07.13-.14.2-.2.07-.06.07-.06.02-.02.04-.03.08-.05.12-.08.34-.22.48-.67.27-1.03s-.68-.49-1.03-.27h0Z"/>
      <path class="cls-1" d="M6.26,1.05c-2.1.56-3.95,2.58-3.75,4.85s2.38,4.08,4.64,3.58c.24-.05.47-.28.52-.52.34-1.63-1.65-1.7-2.47-2.5s-1.08-1.91-.74-2.94c.31-.92-1.14-1.31-1.45-.4-.42,1.24-.17,2.69.59,3.75.38.53.85,1,1.43,1.31.26.14.6.25.84.36.1.04.25.13.32.16.06.03.05,0,.04.01l.04.06c-.04-.07-.06-.14-.04-.21l.52-.52c-1.29.29-2.71-.98-2.75-2.32-.05-1.54,1.23-2.83,2.66-3.21.93-.25.54-1.69-.4-1.45h0Z"/>
      <path class="cls-1" d="M7.83,1.73c.16,2.29.32,4.59.48,6.88.06.87,1.17.99,1.47.2.28-.71.12-1.43.07-2.17-.02-.29-.02-.96.33-1.06-.05.01-.07-.01,0,.02.13.05.23.19.32.29.2.22.37.45.53.7.38.59.64,1.22.82,1.89.22.86,1.4.61,1.47-.2.23-2.52-1.86-4.8-4.33-4.99l.75.75c-.08-1.1-.16-2.19-.24-3.29-.03-.4-.32-.75-.75-.75-.39,0-.77.34-.75.75.09,1.55.39,3.27,1.98,3.97.68.3,1.28.57,1.69,1.22.38.6.52,1.26.44,1.96-.05.4.38.75.75.75.45,0,.7-.35.75-.75.19-1.58-.63-3.2-1.96-4.04-.61-.39-1.38-.46-1.75-1.15-.32-.58-.36-1.3-.39-1.95h-1.5c.08,1.1.16,2.19.24,3.29.03.43.32.72.75.75,1.71.13,2.98,1.84,2.83,3.49l1.47-.2c-.23-.9-.61-1.77-1.15-2.53s-1.25-1.64-2.28-1.43c-.77.16-1.3.91-1.45,1.65-.19.87.26,1.8-.07,2.64l1.47.2c-.16-2.29-.32-4.59-.48-6.88-.03-.4-.32-.75-.75-.75-.38,0-.78.34-.75.75h0Z"/>
      <path class="cls-1" d="M16.61,5.74l2.24-.85c.48-.18.66-.63.45-1.1-.37-.8-1.29-1.19-2.13-1.12-.98.07-1.78.6-2.28,1.44s-.67,1.89-.76,2.87c-.05.53.01,1.11.33,1.56s.83.76,1.38.9c1.14.29,2.43.04,3.38-.66.32-.24.49-.65.27-1.03-.19-.32-.7-.51-1.03-.27-.34.26-.57.37-.93.47-.09.02-.18.05-.27.06-.04,0-.08.01-.12.02.03,0,.12,0-.03,0-.2.02-.39.02-.58,0-.09,0-.01,0,0,0-.05,0-.1-.02-.15-.03-.08-.02-.16-.04-.25-.06-.04-.01-.24-.1-.13-.04-.09-.04-.17-.09-.25-.14.13.09-.1-.11-.04-.05.06.07-.1-.18-.05-.06-.02-.05-.03-.1-.04-.15,0-.02-.02-.14,0-.03-.01-.1,0-.21,0-.31,0-.18.03-.36.05-.54,0,0,.02-.13,0-.05-.01.09.01-.07.01-.09.02-.1.03-.2.05-.3.07-.36.15-.71.29-1.05-.05.11,0,0,.01-.02.02-.04.04-.09.07-.13.03-.06.07-.13.11-.19.03-.04.05-.08.08-.12.01-.02.09-.11.02-.02.06-.07.13-.15.2-.21.02-.02.05-.04.06-.06.06-.07-.1.05-.02.01.06-.02.11-.07.17-.1.03-.02.07-.03.1-.05-.01,0-.12.04-.05.02s.15-.05.22-.07c.04,0,.08-.02.11-.03.05-.01.16,0,0,0,.08,0,.15,0,.23,0s.25.04.08,0c.07.02.14.03.21.05.03.01.07.02.1.04-.05-.02-.11-.06-.03,0,.03.02.06.04.09.05.08.04.01.01-.02-.02.02.02.05.05.08.07.02.02.11.14.05.05-.06-.08,0,0,0,.01.03.05.05.1.08.15l.45-1.1-2.24.85c-.37.14-.66.51-.52.92.12.36.53.67.92.52h0Z"/>
      <path class="cls-1" d="M24.59,2.95c-.47-.36-1.11-.43-1.67-.36-.59.08-1.12.34-1.56.75-.77.72-.99,1.84-1.02,2.85-.02.9.12,1.87.59,2.65s1.31,1.43,2.25,1.56c.56.08,1.11.1,1.66-.07s1.04-.45,1.43-.86c.42-.44.55-1.08.31-1.64s-.76-.89-1.37-.92c-.8-.04-1.6-.08-2.39-.13s-1.53.72-1.5,1.5c.04.85.66,1.46,1.5,1.5s1.6.08,2.39.13l-1.06-2.56c-.06.07-.13.13-.2.18l.3-.23c-.12.09-.24.16-.37.22l.36-.15c-.17.07-.34.12-.52.14l.4-.05c-.18.02-.36.02-.54,0l.4.05c-.18-.03-.35-.07-.52-.14l.36.15c-.13-.06-.26-.13-.37-.21l.3.23c-.12-.09-.22-.2-.32-.32l.23.3c-.12-.15-.21-.31-.28-.49l.15.36c-.1-.26-.17-.53-.21-.8l.05.4c-.05-.46-.05-.92,0-1.38l-.05.4c.03-.24.09-.48.19-.71l-.15.36c.06-.14.14-.27.24-.39l-.23.3c.06-.07.13-.14.2-.2l-.3.23c.09-.07.19-.13.29-.17l-.36.15c.11-.04.21-.07.32-.09l-.4.05c.09-.01.18-.01.27,0l-.4-.05c.09.01.17.03.26.07l-.36-.15c.07.03.13.07.19.11.29.22.83.24,1.16.15.35-.1.73-.36.9-.69.18-.35.28-.77.15-1.16l-.15-.36c-.13-.23-.31-.4-.54-.54h0Z"/>
      <path class="cls-1" d="M26.68,3.93c-.01,1.46.15,2.92.48,4.34l1.45-.4c-.01-.05-.02-.11-.03-.16-.02-.11.02,0,0,.03.03-.07-.02-.23-.02-.3,0-.09,0-.18.01-.28,0-.14.03-.03,0,0,.02-.02.02-.14.03-.16.03-.16.07-.39.16-.53-.05.07-.04.09,0,0,.02-.04.04-.08.06-.12.05-.09.1-.18.15-.26.03-.04.05-.08.08-.12.01-.02.11-.14.04-.06s.03-.04.05-.05c.03-.04.06-.07.09-.1.07-.07.14-.14.22-.21.03-.03.07-.06.11-.09.08-.07-.15.1,0,0,.12-.08.33-.26.48-.28-.09.04-.1.04-.05.02.03-.01.05-.02.08-.03.04-.02.09-.03.13-.04.1-.03.2-.05.3-.07l-.58-1.37c-.81.6-1.63,1.2-2.44,1.8-.2.14-.32.3-.36.55-.03.22.03.48.21.63.98.83,2.05,1.47,3.24,1.94.37.14.84-.16.92-.52.1-.43-.13-.77-.52-.92-.07-.03-.14-.05-.2-.08.13.05-.08-.04-.09-.04-.11-.05-.22-.1-.33-.15-.25-.12-.49-.26-.73-.4s-.45-.28-.67-.44c-.05-.03-.1-.07-.15-.11,0,0-.19-.14-.08-.06-.11-.09-.23-.18-.34-.28l-.15,1.18c.81-.6,1.63-1.2,2.44-1.8.3-.22.46-.57.31-.94s-.51-.51-.88-.43c-2.05.4-3.4,2.65-2.93,4.65.09.38.55.65.92.52.4-.13.62-.51.52-.92-.31-1.34-.44-2.53-.42-3.94,0-.39-.35-.77-.75-.75s-.75.33-.75.75h0Z"/>
      <path class="cls-1" d="M37.1,2.02c-.87,1.83-1.65,4.03-.66,5.97.81,1.58,2.76,2.61,4.44,1.71,1.51-.82,2.12-2.82,2.09-4.44s-.81-3.42-2.49-3.84-3.52.51-3.63,2.29c-.04.62.65.86,1.13.65.79-.35,1.84-.16,2.47.44.69.66.86,1.65.55,2.52-.14.38.15.82.52.92.41.11.79-.14.92-.52.49-1.38.09-3.07-1.01-4.05-1.16-1.04-2.8-1.23-4.21-.61l1.13.65c.01-.23-.04.12.01-.09.01-.05.02-.09.04-.14-.04.11,0,.01,0-.01.03-.06.07-.12.11-.18-.08.1.08-.08.11-.11.16-.15-.11.06.07-.06.06-.04.12-.08.19-.11.04-.02.09-.05.13-.07-.11.05.04-.01.06-.02.11-.03.22-.06.33-.08.23-.04-.08,0,.07,0,.06,0,.13,0,.19,0,.05,0,.1,0,.15,0,.02,0,.23.03.1,0,.45.08.78.29,1.07.73s.43.98.46,1.5c.06,1.07-.2,2.48-1.11,3.19-.41.32-.87.35-1.32.2s-.91-.57-1.18-1.01c-.87-1.44-.11-3.3.54-4.67.17-.37.1-.81-.27-1.03-.33-.19-.85-.1-1.03.27h0Z"/>
      <path class="cls-1" d="M43.7,5.04c.09.81-.12,1.62-.02,2.43.09.75.41,1.47,1.01,1.94s1.48.54,2.14.11c.6-.39,1-1.07,1.14-1.76.09-.46.09-.93.09-1.39,0-.23,0-.46.01-.69,0-.04,0-.08,0-.11,0-.04.02-.17,0-.06.02-.13.05-.25.08-.37h-1.45c.05.25.1.49.14.74,0,.02.03.21.02.12s.01.11.01.12c.01.12.02.25.02.37s0,.25,0,.37c0,.06,0,.12-.02.18-.01.13.04-.17-.01.06-.03.12-.05.24-.09.36,0,.02-.08.19-.03.09s-.03.06-.04.07c-.05.09-.1.16-.15.24.03-.05.07-.08,0-.02-.04.04-.08.09-.12.13-.03.03-.06.05-.08.08-.13.13.12-.08-.03.03-.07.05-.14.09-.22.13-.15.08,0,0,0,0,0,0-.12.04-.13.05-.04.01-.09.02-.13.03-.16.04.1,0,.01,0-.04,0-.09,0-.13,0-.04,0-.16-.04-.06,0,.11.04-.03-.01-.06-.02-.05-.02-.11-.04-.16-.06-.36-.15-.84.16-.92.52-.1.44.13.76.52.92,1.09.46,2.32-.26,2.89-1.19.69-1.12.45-2.53.21-3.74-.06-.31-.41-.56-.72-.55-.33.01-.63.22-.72.55-.2.71-.14,1.45-.16,2.18,0,.08,0,.15-.01.23,0,.04,0,.08,0,.11,0,.03-.03.19,0,.07.02-.11-.02.07-.02.1-.02.07-.04.15-.06.22,0,.03-.07.19-.03.1s-.05.1-.06.12c-.03.05-.06.1-.09.15-.02.02-.03.05-.05.07-.05.08.12-.12,0,0-.04.04-.07.08-.11.12-.02.02-.04.03-.06.05-.06.06.05-.04.05-.04,0,.04-.13.07-.16.09-.07.06.06-.04.06-.02,0,.01-.09.03-.1.03-.1.04.03.01.04,0,0,0-.07,0-.08,0-.03,0-.06,0-.08,0-.05,0-.07-.03,0,0,.07.04.03,0,0,0,0,0-.1-.02-.1-.03,0-.01.13.08.06.02-.03-.02-.06-.03-.09-.05-.01,0-.06-.03-.07-.04,0,0,.13.12.03.02-.04-.04-.08-.07-.11-.11-.05-.06-.08-.12-.02-.02-.04-.07-.08-.12-.12-.19-.03-.05-.05-.1-.08-.15.08.16,0-.01-.02-.06-.02-.05-.03-.11-.05-.16,0-.04-.02-.07-.02-.11,0-.02,0-.04-.01-.06,0-.04,0-.04,0,.02v.04s0-.05,0-.08c0-.05,0-.11,0-.16,0-.11,0-.21,0-.32,0-.2.02-.4.03-.59.03-.41.06-.82.01-1.22s-.32-.77-.75-.75c-.37.02-.79.33-.75.75h0Z"/>
      <path class="cls-1" d="M45.33,9.54h.22c.1,0,.2-.02.29-.06.09-.03.17-.08.24-.16.07-.07.12-.15.16-.24.05-.09.07-.19.06-.29l-.03-.2c-.04-.13-.1-.24-.19-.33l-.15-.12c-.12-.07-.24-.1-.38-.1h-.22c-.1,0-.2.02-.29.06-.09.03-.17.08-.24.16-.07.07-.12.15-.16.24-.05.09-.07.19-.06.29l.03.2c.04.13.1.24.19.33l.15.12c.12.07.24.1.38.1h0Z"/>
      <path class="cls-1" d="M49.83,5.16l3.59.05-.2-1.47c-.11.04-.22.09-.34.12-.07.02-.14.04-.21.05-.02,0-.2.03-.11.02s-.12,0-.12,0c-.06,0-.12,0-.18,0-.13,0-.26-.01-.4-.03-.23-.03-.55.16-.65.37-.59,1.33-.88,2.76-.82,4.22.02.39.33.77.75.75s.75-.33.75-.75c0-1.2-.01-2.4-.02-3.6,0-.38-.34-.78-.75-.75-.09,0-.19.01-.28,0-.05,0-.09,0-.14,0-.14,0,.03.01-.05,0-.09-.02-.19-.04-.28-.06-.05-.01-.09-.03-.14-.04-.02,0-.17-.07-.05-.01-.36-.15-.82-.12-1.03.27-.17.32-.12.86.27,1.03.54.23,1.1.37,1.7.33l-.75-.75c0,1.2.01,2.4.02,3.6h1.5c-.02-.32-.01-.64,0-.97,0-.15.02-.3.04-.44.02-.18-.01.07.01-.1.01-.09.03-.17.04-.26.06-.3.13-.61.22-.9.04-.14.09-.28.14-.42.03-.07.05-.14.08-.21.02-.05.04-.09.06-.14-.03.07-.02.06.01-.03l-.65.37c.59.07,1.21,0,1.76-.23.35-.14.59-.43.54-.82-.05-.37-.36-.65-.74-.65l-3.59-.05c-.39,0-.77.35-.75.75s.33.74.75.75h0Z"/>
      <path class="cls-1" d="M0,13.32c.17,2.62.59,5.22,1.26,7.76.25.94,1.66.54,1.45-.4-.54-2.43-.85-4.89-.92-7.37l-.95.72c.77.13,1.02,1.03,1.23,1.68.3.92.7,1.86,1.59,2.36.53.29,1.08-.09,1.13-.65.1-1.2.8-2.32,1.81-2.97l-1.1-.45c.68,2.32,1.33,4.66,1.97,6.99.25.93,1.7.54,1.45-.4-.63-2.34-1.29-4.67-1.97-6.99-.13-.45-.69-.72-1.1-.45-1.48.95-2.4,2.51-2.55,4.27l1.13-.65c-.74-.41-.85-1.44-1.14-2.16-.37-.91-.99-1.86-2.04-2.03-.46-.08-.96.19-.95.72.08,2.61.4,5.22.98,7.77l1.45-.4c-.64-2.41-1.05-4.87-1.21-7.36-.03-.4-.33-.75-.75-.75C.37,12.57-.03,12.92,0,13.32H0Z"/>
      <path class="cls-1" d="M9.73,17.84l1.6,2.44c.33.5.96.46,1.3,0,.51-.7,1.02-1.39,1.54-2.09l-1.37-.58c-.76,1.82-1.82,3.53-3.11,5.02-.26.31-.3.76,0,1.06.27.27.79.31,1.06,0,1.47-1.7,2.63-3.6,3.5-5.68.14-.34-.12-.76-.43-.88-.37-.15-.71,0-.94.31-.51.7-1.02,1.39-1.54,2.09h1.3l-1.6-2.44c-.22-.34-.66-.48-1.03-.27-.34.2-.49.69-.27,1.03h0Z"/>
      <path class="cls-1" d="M20.34,15.56c1.62-.18,3.24-.38,4.86-.6l-.2-1.47c-.86.13-2.13.29-2.68,1.06-.28.39-.31.84-.36,1.3-.06.56-.12,1.12-.18,1.68-.11,1.06-.21,2.13-.34,3.19-.03.29-.06.66-.25.9-.23.29-.7.36-.99.59-.27.21-.44.5-.34.85.08.3.4.58.72.55,1.19-.11,2.38-.11,3.56,0,.4.04.75-.37.75-.75,0-.44-.34-.71-.75-.75-1.19-.11-2.38-.11-3.56,0l.38,1.4c.32-.25.72-.36,1.04-.6.35-.27.59-.63.73-1.05.31-.87.29-1.9.39-2.81.11-1.03.22-2.07.33-3.1.05-.46.01-.52.47-.66.48-.15.98-.26,1.48-.33.83-.12.64-1.59-.2-1.47-1.62.22-3.24.41-4.86.6-.4.04-.75.31-.75.75,0,.37.34.8.75.75h0Z"/>
      <path class="cls-1" d="M41.7,17.67c1.2.02,2.4.03,3.59.05l-.2-1.47c-.48.19-.84.24-1.36.17-.23-.03-.55.16-.65.37-.45,1.03-.72,2.08-.81,3.2-.03.42-.05.85-.01,1.27.01.14.02.29.06.43.13.4.51.67.94.55.5-.14.56-.58.59-1s.05-.83.06-1.24c.04-1.02.07-2.04.1-3.05.01-.41-.35-.74-.75-.75-.52,0-1.04-.01-1.56-.02-.39,0-.77.35-.75.75s.33.74.75.75c.52,0,1.04.01,1.56.02l-.75-.75c-.03,1.2-.06,2.39-.12,3.59-.01.25-.02.49-.04.74,0,.11-.07.31,0-.02,0,.01,0,.03,0,.04.05-.15.24-.45.51-.5l.58.08h0c.09.09.18.18.27.27.01.02.09.25.06.12-.01-.06.02.23,0,.06,0-.13-.02-.26-.02-.39,0-.39.01-.79.05-1.18.02-.19.05-.35.09-.59.04-.22.1-.44.16-.65.06-.2.12-.4.19-.6.03-.08.06-.16.09-.25.02-.04.03-.08.05-.11.04-.11-.07.16,0,0l-.65.37c.59.07,1.21,0,1.76-.23.35-.14.59-.42.54-.82-.05-.37-.36-.65-.74-.65-1.2-.02-2.4-.03-3.59-.05-.39,0-.77.35-.75.75s.33.74.75.75Z"/>
      <path class="cls-1" d="M39.03,16.28c-.49-.19-.99-.32-1.51-.23-.46.08-.88.37-1.11.78-.45.8-.3,1.93.34,2.59.16.16.35.29.55.38.23.1.36.14.51.22.07.05.09.06.04.02.04.03.08.07.11.1.1.09-.01-.03.07.09.04.08.05.09.02.03.02.05.03.1.04.15-.03-.16,0,.17,0,.08.01-.11-.06.24-.02.08-.05.07-.05.09-.01.04-.07.06-.07.07-.02.03-.01,0-.2.12-.09.07-.09.04-.2.06-.3.08-.09.02-.1.02-.03,0-.05,0-.1,0-.15.01-.07,0-.15,0-.22,0-.09,0-.1,0-.02,0-.05,0-.09-.02-.14-.04.07.03.06.03-.02-.01.05.05.05.04-.02-.02-.27-.26-.69-.29-.98-.06s-.4.65-.19.97c.5.77,1.53.95,2.39.86.56-.06,1.07-.29,1.39-.77.24-.35.34-.81.31-1.23-.03-.48-.17-.96-.46-1.34-.27-.36-.66-.57-1.09-.69-.16-.05-.33-.08-.5-.12-.08-.02-.16-.04-.23-.06-.03,0-.06-.02-.1-.03-.19-.05.06.04-.04-.01-.04-.02-.08-.04-.11-.07-.07-.05.01.01.02.01-.04,0-.08-.08-.02,0-.03-.03-.05-.08-.07-.12,0,0-.04-.11-.02-.04.03.08,0-.06-.01-.07-.03-.11,0,.11,0,0,0-.06,0-.11,0-.17-.02.17.07-.16,0-.02.02-.04.05-.08.07-.13-.04.06-.02.02.02-.02s.07-.07.1-.1c-.08.07.02,0,.05-.03.03-.02.06-.04.1-.05-.1.05.03,0,.06-.02.02,0,.17-.04.08-.03-.08.02.13,0,.13,0,.04,0,.08,0,.12,0,.05,0,.05,0,0,0l.08.02c.15.05.34.14.44.23.31.27.76.3,1.06,0,.27-.27.31-.79,0-1.06-.76-.66-1.8-.91-2.73-.44-.83.42-1.29,1.39-1.02,2.29.13.45.43.84.83,1.08.34.19.71.27,1.08.35.08.02.15.04.23.06.04.01.08.03.13.04.01,0,.11.05.03.01-.09-.04.17.12.03.01.1.08.08.06.12.14.07.15.04.08.02.05.02.04.03.09.04.13,0,.03.02.07.03.1,0,.02.03.17.02.08-.01-.08,0,.04,0,.04,0,.05,0,.1,0,.14,0,.03-.02.14,0,.01,0,.05-.02.09-.03.13-.03.13-.02.05,0,.01,0,.02-.09.17-.05.09.03-.06-.01.02-.03.03.13-.06-.09.04-.01.01.06-.02-.06.02-.06.02,0,0-.19.04-.13.03.08-.01-.09,0-.1,0-.07,0-.14,0-.2,0-.1,0-.21-.01-.31-.02-.03,0-.14-.03-.01,0-.05,0-.09-.02-.14-.03s-.09-.03-.14-.04c-.13-.03.02.02-.04-.02-.03-.02-.06-.03-.09-.05.13.1-.04-.1.04.03l-1.18.91c.68.65,1.87.66,2.67.22.94-.51,1.19-1.77.58-2.64-.3-.43-.7-.7-1.19-.88-.04-.01-.08-.03-.12-.04.05.03.04.02-.05-.02-.07-.05-.08-.05-.03,0-.04-.03-.07-.06-.1-.1.08.09-.06-.11-.08-.15.05.12-.03-.1-.03-.13,0-.04-.02-.07-.02-.11.01.08.01.07,0-.02,0-.03.03-.3,0-.17,0-.05.02-.1.04-.14-.03.06-.03.05.01-.02.05-.07.05-.08.01-.03.06-.06.07-.07.04-.04-.01.02-.03.03-.06.03.05-.02.1-.03.15-.04-.07,0-.06,0,.03,0,.05,0,.1,0,.15,0,.15.02.42.13.61.21.38.15.82-.16.92-.52.12-.42-.14-.78-.52-.92h0Z"/>
    </g>
  </g>
</svg>