<?xml version="1.0" encoding="UTF-8"?>
<svg id="Calque_2" data-name="Calque 2" xmlns="http://www.w3.org/2000/svg" viewBox="0 0 87.65 15.72">
  <defs>
    <style>
      .cls-1 {
        fill: #fff;
      }
    </style>
  </defs>
  <g id="Landing_page" data-name="Landing page">
    <g>
      <path class="cls-1" d="M9.75,6.9v-1.1c0-.48,0-.94-.02-1.42,0-.05-.02-.07-.02-.12-.05.02-.1.02-.12.07-.02.02-.05.05-.07.1l-.14.5c-.02.12-.05.22-.07.31l-.07.12s-.1.12-.14.19l-.02.1c.05.12-.02.22-.02.34-.02.1-.02.22-.1.31v.02c.02.14-.05.24-.07.36-.02.1-.1.17-.14.26-.02.02-.05.05-.07.1,0,.14-.1.26-.1.41,0,.07-.05.14-.07.19-.05.17-.12.36-.17.5-.05.12-.12.19-.17.29-.07.19-.22.38-.26.6,0,.02-.02.05-.02.07-.14.17-.24.38-.31.6-.02.07-.05.14-.1.19-.02.07-.05.12-.07.17l-.07.17c-.07.07-.1.17-.12.26-.02.14-.1.29-.17.41-.02.1-.07.19-.12.29-.05.19-.12.41-.26.55-.05.05-.07.1-.07.14.02.1-.02.17-.07.22-.05.07-.07.14-.07.22-.02.1-.05.19-.12.24-.05.07-.07.14-.1.24-.02.14-.1.29-.14.43-.02.07-.02.14-.05.22v.07c-.07.14-.05.29-.1.43-.02.1-.07.22-.12.29-.05.1-.1.19-.1.29s0,.19-.02.26c-.02.14-.24.26-.38.24-.17-.02-.31-.07-.43-.14-.1-.07-.17-.17-.22-.26-.05-.07-.1-.14-.12-.24-.07-.17-.12-.34-.17-.53-.05-.1-.07-.19-.1-.29-.07-.24-.14-.48-.19-.72l-.22-.62c-.05-.14-.07-.34-.12-.48l-.22-.7c-.07-.19-.14-.38-.17-.6v-.05c-.1-.12-.1-.29-.19-.41-.02-.02-.02-.05-.05-.1l-.14-.58c-.02-.07-.02-.17-.07-.24-.12-.24-.17-.5-.24-.74-.07-.26-.12-.53-.19-.77-.02-.07-.05-.12-.05-.17l-.22-.79s-.02-.1-.05-.14c-.05-.12-.1-.24-.1-.36l-.07-.26c-.07-.19-.12-.41-.14-.62v-.05c-.1-.26-.12-.55-.19-.82l-.14-.55s-.02-.02-.05-.05c-.02-.02-.05-.02-.07.02,0,.02-.02.07-.02.12-.05.19-.07.41-.1.62-.1.1-.02.24-.07.36.07.14,0,.26,0,.41,0,.31,0,.6-.05.91-.02.02-.02.05,0,.05.02.36-.02.72-.02,1.08,0,.19-.05.38-.05.58-.02.24-.07.48-.02.7.02.05.02.1.02.14,0,.14-.05.26,0,.38,0,.05,0,.1-.02.12-.02.22-.02.43,0,.65.02.02.02.07,0,.1-.02.17,0,.34.05.5,0,.02,0,.05-.02.05-.05.17,0,.34,0,.5-.02.05,0,.07,0,.1.07.19.05.36.05.55v.12c.05.31.02.6.05.91.02.65.02,1.3.02,1.97v.05c.07.17.05.34,0,.48-.02.12-.1.17-.22.17-.02,0-.02-.02-.02,0-.14,0-.24-.05-.34-.12-.1-.12-.19-.24-.24-.41-.05-.19-.07-.38-.12-.6v-.05c0-.38,0-.77-.02-1.15,0-.17-.02-.34-.05-.5,0-.14,0-.29-.02-.46,0-.07,0-.17-.02-.26v-.67c-.05-.29-.05-.58-.07-.86-.02-.48-.02-.98-.02-1.49-.05-.14.02-.29,0-.43-.05-.19-.02-.38-.02-.6v-.46c.02-.07.02-.14,0-.24v-.12C.03,6.8,0,6.66,0,6.49c0-.24.02-.48.05-.72.02-.17.02-.34.02-.5v-1.3s.05-.05.02-.07c-.02-.22.07-.41.07-.6-.02-.05-.02-.07,0-.1.05-.19.05-.38.07-.58v-.22c.1-.12.05-.26.1-.41.05-.22.02-.46.05-.7,0-.17-.02-.34.07-.5.02-.02.02-.07.02-.1-.02-.05-.02-.1-.02-.14,0-.1.05-.12.14-.1l.31.07c.07,0,.12,0,.19.02l.46.14s.07.02.1.02c.19.05.31.14.43.29s.19.31.22.5c.02.12,0,.22-.07.31-.1.1-.1.19-.05.31.12.22.14.48.24.72.02.12.05.24.05.38,0,.07.02.17.05.24l.12.41s.02.12.05.19l.02.1c.02.17.05.31.12.46l.07.31c.02.19.07.38.12.58v.17c0,.07,0,.14.05.19,0,.02.02.02.02.05-.02.17.1.29.17.43,0,.02.05.07.02.12,0,.17.1.34.14.5,0,0,.02.02.02.05-.02.22.07.41.12.6l.07.17c.1.24.17.5.19.74,0,.07.02.12.05.17.07.14.12.29.14.46l.07.29s.02.1.05.14c.02.12.05.24.12.36.05.07.1.14.1.24,0,.02,0,.05.02.07.07.07.05.19.07.29.05.17.05.36.12.53l.19.36s.05.02.05.05c0,.19.1.34.1.53v.14s.02.05.05.05c.05,0,.07-.02.1-.02t.02-.05v-.02c.07-.17.12-.36.19-.5.1-.17.17-.34.24-.5l.07-.17c.02-.12.05-.24.14-.34.02,0,.02-.05.02-.07l.29-.67s.02-.1.05-.14c.05-.12.12-.24.19-.38.05-.12.12-.26.17-.38l.22-.43c.05-.1.1-.19.17-.29.1-.17.19-.34.29-.53.07-.17.14-.34.24-.53.07-.17.1-.36.14-.53.05-.19.1-.34.17-.5.07-.22.14-.43.24-.65.02-.1.05-.19.1-.29.07-.12.14-.24.19-.36.05-.1.07-.22.1-.34.02-.12.05-.22.1-.31.07-.17.17-.34.24-.5l.17-.22c.05-.07.1-.17.12-.24.07-.22.12-.41.26-.55,0-.02.02-.02.02-.05.07-.19.17-.38.24-.58.02-.07.07-.17.12-.24.1-.14.1-.31.14-.48.05-.1.05-.19.1-.29.05-.05.02-.1.05-.17,0-.02,0-.07.02-.1.12-.07.14-.17.22-.29.05-.1.07-.12.19-.12.1.02.19.12.29.14s.19.05.26.14c.02.05.07.07.12.12.1.07.14.14.17.26,0,.05.02.1.05.14.05.07.07.17.07.24-.02.14-.02.31-.07.46-.02.07-.02.17-.02.24.02.14.05.26,0,.41,0,.07,0,.14.02.22v.14c0,.07-.05.17.02.26-.02.22.05.46-.02.7v.02c.02.26-.05.5-.07.77-.02.14-.07.31,0,.46v.1c0,.1-.02.19,0,.29.02.22.02.46,0,.67-.02.02-.02.07,0,.1.02.14.02.29,0,.46-.02,0-.02.02-.02.02.05.24,0,.48-.05.7v.05c.02.14.02.29.05.43v.1c0,.22.02.46,0,.67,0,.22-.02.43-.05.65v.82c.05.1.02.17.02.26s-.05.22,0,.34c.02,0,.02.02,0,.05-.05.22-.02.43,0,.65.02.14,0,.26,0,.41l-.02.1c.05.19-.02.38,0,.58v.55c.02.12.05.24.05.36.02.22.02.43-.02.65-.02.14-.02.26.02.41.05.19-.05.36-.19.5-.07.1-.17.17-.24.26-.07.07-.14.12-.24.12-.05-.02-.12-.02-.17,0-.1,0-.17-.02-.24-.12-.02-.05-.07-.07-.1-.1-.14-.07-.19-.19-.22-.31l-.07-.41c-.02-.26-.07-.53-.05-.82.02-.19.02-.38.05-.6v-.22c0-.07-.02-.12-.02-.17.05-.22,0-.43,0-.65.02-.22.05-.43.05-.65t.02-.02c-.07-.19,0-.41,0-.6-.02-.22-.02-.43,0-.62,0-.19.02-.41.05-.6v-2.62h.02Z"/>
      <path class="cls-1" d="M15.7,14.46c0-.19,0-.38.02-.6,0-.1.05-.19.05-.31-.02-.05-.02-.12-.02-.17,0-.02-.02-.07,0-.1,0-.14,0-.26.02-.41,0-.07,0-.14.02-.22.02-.02.02-.07.02-.12,0-.17.07-.31.02-.48.1-.12,0-.29.05-.41.05-.14.05-.29.05-.43t.02-.05c.07-.17.05-.36.05-.53.02-.46.02-.89.05-1.32,0-.19-.07-.36-.12-.53-.02-.07-.1-.12-.17-.17-.1-.1-.22-.19-.26-.34v-.02c-.12-.07-.17-.19-.24-.29l-.14-.19s-.05-.1-.07-.14l-.05-.07c-.14-.17-.24-.36-.29-.58-.05-.14-.07-.29-.12-.43-.05-.1-.12-.17-.17-.26-.1-.17-.19-.36-.24-.55-.07-.22-.12-.43-.22-.65-.05-.14-.1-.29-.12-.46,0-.1-.07-.17-.1-.26-.07-.19-.14-.38-.17-.6-.02-.14-.1-.29-.14-.43-.05-.1-.07-.19-.12-.29-.05-.12-.1-.26-.17-.36-.07-.12-.07-.24-.12-.36-.02-.07-.02-.12-.05-.17-.02-.1-.05-.17-.05-.24-.02-.12-.12-.26-.1-.41,0-.02-.05-.05-.05-.1-.07-.12-.1-.29-.1-.43,0-.1.02-.17.07-.24.07-.07.14-.1.22-.14.17-.05.31-.02.46.05.26.1.38.31.43.55.07.29.14.6.24.89.05.14.12.26.17.41l.07.19c.07.19.17.38.24.58.07.22.1.41.17.62.05.19.12.38.19.58.1.24.19.5.24.77,0,.12.05.22.1.34s.12.24.17.36c.07.14.12.29.17.43.1.26.22.5.36.74.02.05.02.1.05.14.05.19.14.36.29.5.07.07.12.07.14-.02.07-.14.19-.24.26-.38,0-.02.02-.05.05-.07.02-.02.05-.05.05-.07.05-.24.17-.43.24-.65.05-.14.12-.29.17-.43l.07-.22c.02-.14.05-.26.12-.38.07-.17.1-.36.17-.53.07-.14.1-.34.14-.5l.29-.91s.02-.02.02-.05c.02-.24.12-.46.19-.67.05-.07.05-.17.05-.24l.07-.34c.05-.19.1-.38.12-.58l.07-.46c.02-.19.12-.36.24-.53.02-.05.07-.07.12-.07.14,0,.26.02.38.05l.1.07c.07.12.19.22.24.34.07.24.14.46.05.7-.05.12-.05.26-.07.38-.02.19-.07.36-.1.53-.05.24-.07.46-.12.7l-.12.41c-.07.19-.17.38-.24.58-.05.14-.07.31-.1.48-.05.12-.05.24-.14.34l-.02.02c.05.17-.07.31-.12.46-.02.07-.05.14-.1.19-.02.02-.02.05-.02.07v.22c-.07.22-.1.43-.22.62,0,.17-.14.26-.17.41-.02.1-.07.19-.1.29-.02.26-.17.48-.31.72-.05.07-.1.14-.12.22-.05.07-.1.12-.17.17-.05.05-.07.12-.12.17l-.17.17s-.05.07-.05.1,0,.07.02.12c.07.31.02.65,0,.98-.02.1-.02.22-.02.31v.5c-.07.14-.02.29-.07.43,0,.05,0,.1-.02.12-.02.07-.05.17-.02.26,0,.02,0,.1-.02.12-.05.1-.02.22-.02.31l-.05.41c-.02.26-.02.53-.05.79-.02.19-.05.41-.05.6-.02.1-.02.19,0,.29.02.12,0,.24-.05.36v.1c.07.12.07.19.02.31-.02.02-.02.05-.02.07l.07.22s0,.02-.02.02c-.1.05-.14.17-.24.24,0,0-.02.02-.05.02-.1-.05-.14,0-.19.07-.05.02-.07.02-.1-.02-.05-.05-.1-.12-.05-.22,0-.02,0-.07-.05-.1-.02-.02-.05-.02-.1,0s-.07,0-.07-.05q-.02-.1-.1-.05s-.05.02-.1.05c0,0-.02,0-.02-.02v-.05c.14-.02.14-.14.17-.24.02,0,0-.02,0-.05,0,.02-.02.02-.05.02l-.02.02s-.05.12-.1.1c-.02-.02-.05-.1-.05-.12v-.53ZM16.37,15.54s.05-.05.05-.07c.02,0,0-.02-.02-.05l-.07.07s.02.02.05.05Z"/>
      <path class="cls-1" d="M29.57,10.5v-1.92c0-.26.02-.5.02-.74.02-.24.02-.48.05-.72v-.31c0-.17.02-.36.05-.53,0-.12.02-.24.02-.36.02-.17.07-.34.07-.53.02-.17.02-.34.05-.5,0-.26-.02-.53.02-.82.02-.29.02-.6.02-.89,0-.22.02-.46.02-.67,0-.29.02-.55-.02-.82,0-.17-.05-.31-.1-.48-.07-.14-.05-.22.1-.31l.1-.07s.07-.1.12-.14c.02-.02.05-.07.07-.07.14-.07.31-.02.48-.02,0,0,.02.02.02.05.05.1.12.1.22.1.12,0,.22-.02.34-.05.17-.02.36-.05.53-.05.14,0,.29.02.43.05.22.02.41.07.62.12.12.02.24.07.36.1.1.05.22.07.34.14.12.05.22.12.34.19.07.05.14.12.22.19.1.07.17.14.24.24.12.17.24.34.36.53.07.1.1.24.17.36.1.24.19.46.24.7.07.24.1.48.07.72-.02.24-.07.48-.07.72,0,.12-.05.24-.07.36-.02.07-.02.14-.05.24-.02.12-.07.22-.07.34.02.05,0,.1-.02.14-.02.07-.05.17-.07.26l-.07.19c-.05.07-.12.17-.12.26,0,.05-.05.1-.07.12-.07.05-.12.1-.12.17,0,.05,0,.07-.02.1-.05.1-.1.19-.14.29l-.19.34s0,.02-.02.05c-.19.19-.29.46-.46.65-.07.07-.17.14-.19.26l-.07.07c-.1.07-.19.14-.26.22-.05.02-.07.05-.1.1-.07.12-.14.24-.29.31-.05.05-.1.1-.14.17-.07.12-.17.14-.26.22-.07.02-.1.07-.14.12-.05.02-.07.07-.12.1-.17.1-.34.19-.53.29-.02,0-.07.02-.1.05-.1.07-.19.17-.34.19-.07.02-.12.05-.19.1l-.07.14v.96c.02.29.02.58.05.89,0,.17.02.34.02.5.02.26,0,.5.07.74.02.19-.02.41.05.6.02.05,0,.1,0,.14v.31s.02.1,0,.14-.02.12-.05.14c-.07-.07-.12.05-.17.02s-.1,0-.07.07c0,.05-.02.12-.05.17h-.02c-.12,0-.29.1-.41-.05-.05-.02-.1-.02-.14.02-.05.05-.07.02-.07-.02-.07-.14-.17-.31-.17-.48,0-.07-.02-.14-.02-.22l-.05-.34c-.02-.34-.02-.67-.1-1.01-.02-.02-.02-.05-.02-.07,0-.72-.02-1.44-.02-2.18v-.38ZM30.82,7.45h-.02v.72c-.07.29-.02.58-.02.86-.02,0,0,.02,0,.02,0,.07.02.1.1.07.05,0,.1-.02.14-.05.22-.12.38-.31.62-.38v-.02c.19-.19.36-.36.55-.55l.14-.17c.1-.07.17-.14.24-.26,0-.05.05-.07.07-.1.05-.05.07-.07.12-.1.1-.19.22-.36.34-.55.05-.1.12-.19.17-.31.1-.17.17-.36.26-.53.1-.22.19-.43.24-.67.05-.26.12-.5.12-.77.02-.29.02-.58.02-.86v-.1c-.05-.14-.07-.29-.12-.43-.05-.22-.14-.41-.26-.58-.05-.05-.1-.1-.12-.14-.1-.17-.26-.26-.38-.41l-.02-.02c-.14-.05-.24-.19-.41-.14h-.02c-.07-.07-.17-.07-.26-.1-.19-.07-.41-.05-.6-.07h-.05c-.1,0-.19.02-.29.02h-.14c-.07.02-.12.05-.12.14-.02.05-.02.1-.02.14,0,.14-.02.29,0,.43.02.1.02.17.02.26,0,.12,0,.22-.02.34,0,.17-.02.34-.02.5-.02.22-.07.43-.05.67v.38c-.02.1-.07.19-.02.29v.05c-.07.17-.05.36-.05.55,0,.12.02.24-.05.36-.02,0-.02.02-.02.05v.6c-.07.1-.05.22-.05.34v.5Z"/>
      <path class="cls-1" d="M41.72,6.58c0,.17.02.31.02.46v.65s-.02.02,0,.05c.05.26-.02.55-.02.82,0,.17-.07.34-.07.5-.07.12-.05.24-.05.36,0,.1-.02.19-.05.29-.07.12-.1.26-.12.41-.05.24-.12.5-.24.74-.05.07-.07.14-.1.22-.1.14-.17.26-.26.38-.02.05-.07.07-.1.1-.07.02-.12.07-.17.14-.02.07-.1.12-.17.14-.14.07-.31.17-.48.19-.12.02-.24.05-.34.1-.1.02-.19.07-.29.14-.02,0-.05.02-.07.05-.1.05-.14.02-.22-.05-.02-.02-.05-.07-.1-.1-.02-.05-.1-.07-.14-.07-.12-.02-.22-.07-.31-.12-.05-.02-.12,0-.14-.07,0,0-.05-.02-.07,0-.07.02-.12,0-.17-.02-.1-.07-.22-.12-.29-.22-.05-.02-.1-.05-.14-.1,0,0-.02,0-.05-.02-.31-.24-.58-.5-.65-.91l-.07-.26c-.05-.22-.12-.43-.17-.62v-.12c-.02-.07-.02-.14-.05-.22,0-.05,0-.1-.02-.17,0-.19-.02-.38-.05-.6v-.34c.02-.31.05-.65.1-.96.05-.34.12-.65.19-.96.02-.19.07-.38.12-.58.05-.17.07-.31.14-.46.1-.22.17-.46.26-.7.05-.12.14-.26.22-.38.02-.05.05-.07.07-.1.12-.34.38-.55.6-.84.07-.12.19-.19.34-.26.12-.07.24-.14.31-.26.05-.07.12-.1.22-.14.07-.02.12,0,.14.05l.05.05c.02.19.22.22.33.29l.22.14c.19.14.41.29.58.48.14.14.31.29.43.48.05.07.1.17.14.26.05.1.1.19.17.29.1.14.12.29.17.43.02.1.07.17.1.26.05.19.12.38.17.58.05.22.1.41.07.6ZM40.92,6.27c-.02-.1,0-.19-.02-.29-.07-.24-.17-.48-.24-.7-.02-.12-.05-.24-.12-.34-.14-.24-.36-.43-.55-.65-.12-.12-.29-.1-.41,0-.07.07-.17.12-.26.14-.22.07-.38.19-.5.38-.02.05-.07.1-.1.12-.14.05-.19.14-.22.26-.1.29-.24.58-.34.86-.12.26-.17.55-.26.82-.07.26-.07.5-.12.77-.05.24-.05.48-.12.7v.07c0,.1.05.22-.02.31-.02,0,0,.05,0,.07,0,.26,0,.53.02.79.02.31.05.6.12.89.02.1.05.14.12.22.05.07.12.12.22.17.29.17.62.17.94.17.14,0,.29-.02.41-.07.22-.05.38-.12.53-.29.12-.12.22-.26.36-.38.1-.1.17-.24.22-.38l.19-.7c.02-.14.05-.29.1-.46.02-.1,0-.22.02-.34,0-.17.02-.34.05-.5.02-.22.07-.46.02-.7-.02-.19-.02-.38.02-.58v-.05c-.07-.1-.05-.22-.05-.34Z"/>
      <path class="cls-1" d="M43.35,14c0-.24,0-.48-.02-.7,0-.07.02-.17.02-.24v-.07c-.07-.6-.07-1.22-.1-1.82,0-.07-.02-.12-.02-.19v-.5c0-.36,0-.72-.02-1.08v-.48c0-.14.02-.29.02-.43,0-.02.02-.05,0-.05-.05-.34-.02-.67-.02-.98v-2.66c0-.19.05-.36.05-.55v-1.63c.02-.14.02-.26,0-.41,0-.14-.02-.26-.02-.41,0-.07.02-.12.02-.19.02-.17.05-.36.05-.55,0-.05,0-.12.02-.17.02-.05.05-.07.07-.07.07-.05.14-.1.17-.17,0-.02.02-.05.05-.05.14-.07.29-.14.43-.14.05,0,.1,0,.12.02.05.07.14.07.22.07.24-.02.48-.02.72,0,.19,0,.38.02.58.05.17.05.36.12.53.17l.41.07c.19.02.36.12.53.17.12.02.19.07.29.14.1.05.19.1.29.17.02,0,.05.02.07.05.12.14.26.24.41.34.05.02.07.05.1.1.1.17.17.34.24.5.19.34.14.7.1,1.06-.02.31-.12.58-.26.84-.05.1-.12.14-.17.24-.14.17-.34.31-.46.48-.02.05-.07.07-.1.12-.02.02-.05.07-.1.07-.12.05-.17.17-.29.22-.1.02-.19.12-.26.19-.22.12-.43.29-.67.36-.07.02-.14.02-.19.05-.07.02-.1.07-.05.14.07.07.17.14.24.24.05.05.12.1.17.17l.34.43c.07.12.17.24.17.38,0,.02,0,.05.02.07.12.31.22.65.29.98.02.12.02.26.05.38.07.38.05.77.1,1.15.02.24.05.48.1.72.02.24.07.48.12.72.05.22.1.41.22.6.07.14.22.26.41.26h.07c.17.05.22.1.17.26-.05.19-.17.29-.36.29h-.22c-.17-.05-.34-.12-.5-.19-.07,0-.12-.05-.17-.1-.05-.02-.07-.1-.14-.12-.1-.05-.14-.1-.19-.19-.19-.29-.34-.58-.36-.94-.02-.24-.1-.48-.12-.72l-.07-.65c0-.19,0-.41-.05-.6-.02-.19-.02-.38-.05-.58-.05-.14-.05-.31-.1-.48-.05-.12-.05-.26-.07-.38-.05-.19-.12-.38-.22-.58-.02-.05-.07-.1-.12-.14-.05-.07-.12-.14-.19-.19-.17-.22-.36-.41-.62-.5-.12-.05-.24-.05-.38-.07-.1-.02-.14.05-.12.14.02.07.02.14.02.22,0,.14-.02.29-.02.43,0,.26.02.53.02.79.02.07.02.14.05.24v.07c.02.31.02.62,0,.94,0,.19,0,.36-.1.55v.05c.07.14.05.29.05.43-.02.19,0,.41.02.6v.29c.02.31.02.65.05.98,0,.17.05.31.07.48.02.24.05.48.05.72,0,.1-.02.19-.05.29v.02c.02.14-.05.29-.02.46v.02c-.02.22.02.41-.02.62l-.07.43c-.02.14-.07.19-.24.19-.02,0-.07,0-.12.02-.24.02-.41-.1-.55-.29-.12-.14-.22-.34-.22-.53-.02-.17-.05-.34-.05-.48ZM47.57,2.72c.02-.14-.05-.31-.1-.48-.05-.19-.19-.31-.38-.36-.14-.05-.29-.07-.41-.12-.24-.14-.53-.19-.79-.24-.24-.05-.5-.07-.77-.07-.02,0-.07,0-.1-.02-.14-.02-.26,0-.41.02-.12.02-.14.05-.14.19,0,.31.05.6.02.89,0,.05.02.07.02.12.02.14.05.29,0,.43-.02.14,0,.26,0,.41-.02.05,0,.07,0,.12,0,.29.05.6,0,.89-.02.02-.02.05,0,.07.02.1,0,.22-.02.34-.02.14-.02.29-.02.43,0,.07.05.1.12.05.17-.1.31-.22.5-.26.22-.05.43-.14.62-.22l.62-.22c.1-.05.17-.1.24-.17.05-.07.12-.12.19-.17.05-.05.12-.07.17-.12.12-.12.22-.24.29-.36.07-.1.14-.19.19-.29.1-.26.17-.53.14-.86Z"/>
      <path class="cls-1" d="M53.67,13.74c0-.17.02-.34.02-.5,0-.12-.02-.22-.02-.31.02-.29.05-.58.07-.84v-.14c.02-.26.05-.5.05-.74,0-.29.05-.58.07-.86.02-.34.05-.65.05-.98.02-.19.02-.38.02-.58,0-.31,0-.62.05-.91.02-.24,0-.48,0-.72v-.74c0-.29,0-.58.02-.86.05-.53.05-1.08.02-1.61,0-.34-.02-.67-.05-1.01v-.38c0-.24,0-.5-.05-.74-.02-.1-.02-.12-.14-.1-.24,0-.48,0-.7.02-.24.05-.46,0-.67.02h-.65c-.07,0-.14.02-.22.02-.05.02-.1.05-.12.07-.07.07-.12.17-.19.26-.07.1-.19.14-.31.1-.14-.02-.24-.07-.34-.19-.05-.07-.12-.14-.14-.24,0-.02-.02-.05-.05-.07-.1-.05-.12-.14-.12-.24-.05-.14-.07-.26-.1-.41,0-.02,0-.05-.02-.07-.05-.07-.05-.14-.02-.22,0-.02-.02-.07-.02-.12v-.17c0-.07.05-.1.12-.12.12-.02.24-.05.36-.07h.05c.12-.12.26-.07.41-.05.02,0,.05.02.07.02.22,0,.46,0,.67-.02s.43-.05.62-.07l.74-.07c.31-.02.62-.07.94-.05.17,0,.31-.05.48-.02.29,0,.58.02.86.05.22,0,.41.02.6.05l.38.07s.1,0,.14.02c.24,0,.48.1.72.17.19.05.34.17.38.38.05.19.07.41-.05.6-.05.05-.1.1-.19.1h-.5c-.07-.02-.14,0-.22,0l-.96.07c-.17,0-.34.02-.5.05-.14.02-.19.07-.22.22-.02.19-.05.38.02.55v.1c-.02.1,0,.17,0,.26s.02.19.02.31c.02.29.05.58.07.89v.02c0,.14,0,.29-.02.41-.02.24-.05.48,0,.72,0,.05,0,.1-.02.14v.12c0,.07.02.17,0,.26-.02.07,0,.14-.02.22,0,.12,0,.24-.02.36-.05.1-.02.22,0,.31,0,.1,0,.19-.05.29-.02.1-.02.19-.02.29,0,.17.02.31,0,.48-.02.22-.02.43-.02.67,0,.1,0,.22-.02.34,0,.14-.02.31,0,.48,0,.12-.02.26-.02.38-.05.43-.07.89-.07,1.32,0,.14-.02.29-.05.43,0,.14,0,.29-.02.46,0,.02.02.07,0,.1-.07.19-.05.38-.05.58,0,.14-.02.29-.02.46v.22c-.02.22-.02.43-.05.67,0,.1.02.22.02.31,0,.17-.02.36-.02.53,0,.1,0,.17.05.26.05.07.05.17.07.26t0,.02c-.05.14-.14.22-.26.29-.1.05-.19,0-.26-.05-.17-.17-.34-.31-.41-.53-.14-.31-.19-.65-.17-.98Z"/>
      <path class="cls-1" d="M61.25,6.13c.29-.05.5.02.74.05h.19c.26-.02.55-.07.82-.07.29-.02.55.1.79.24.12.07.14.19.14.31-.02.1-.1.17-.19.19-.05.02-.1.02-.17.05-.07,0-.14.02-.19.02-.22-.05-.43,0-.62-.02-.05,0-.1.02-.14.02-.07.02-.14.02-.24.02h-.12s-.1.02-.17.02c-.12.02-.24-.02-.36.02l-.1-.02c-.07-.02-.14-.05-.22-.02-.02.02-.05.02-.07,0-.12-.05-.26-.02-.41,0-.02.02-.07.02-.1.05l-.34.14c-.12.05-.17.14-.17.26,0,.14-.02.29-.02.41s.02.22.02.31c-.02.22-.05.41-.05.62-.02.22-.05.43-.05.67-.02.02,0,.05,0,.07.05.07.05.17.05.24,0,.24-.02.48,0,.7,0,.19,0,.36-.02.55-.02.05-.02.12,0,.17.02.26.07.5.1.77,0,.1-.02.19-.02.31.02.17.02.36.05.55,0,.1,0,.22.02.31v.55c.07.1.02.24.05.36.02.05-.02.12-.02.19v.36l.02.1c.07.22,0,.38-.1.55-.02,0-.02.02-.05.02-.14.02-.26.1-.41.07h-.12c-.12.02-.19-.05-.26-.17-.17-.22-.22-.46-.24-.74,0-.24,0-.48-.05-.72v-.1c-.02-.19-.02-.41-.02-.6s-.02-.38-.02-.58c-.02-.02,0-.07,0-.1v-.24c.02-.12,0-.22.02-.34.02-.02.02-.07.02-.1l-.07-.98c0-.12.02-.22.02-.31-.07-1.1,0-2.18-.02-3.29,0-.19.05-.41.05-.6.02-.12.02-.24.02-.36v-.46c0-.29,0-.55.02-.82,0-.22.02-.41.02-.6l.05-.34c.02-.1,0-.22,0-.31,0-.26.02-.5.02-.77v-.7c0-.19,0-.36.02-.55.02-.19.02-.36.05-.55,0-.05.02-.1.02-.14.02-.02.05-.05.05-.1.02-.17.14-.19.26-.22.1-.02.19,0,.29,0,.07,0,.14.07.22.12.05.07.12.07.19.05.07-.02.17-.02.24-.02.24.02.48.02.72-.02.22-.02.43-.05.65,0h.34c.17,0,.31-.02.48-.02.12,0,.26,0,.38.02.12,0,.24.02.36.05.07,0,.12,0,.17.02.19.07.38.17.58.24.14.05.17.1.14.24-.02.02-.02.05-.02.07,0,.14-.07.19-.19.24-.1.02-.22.02-.31,0-.17-.02-.34-.07-.5-.1s-.36-.02-.55.02c-.17.02-.34,0-.5,0-.1,0-.19-.02-.29-.05-.05,0-.1,0-.14.02-.17.07-.31.07-.48.05-.14-.02-.29-.02-.41-.05s-.22.02-.34.02c-.05,0-.1.02-.14.02-.1,0-.14.05-.19.14-.02.07-.05.17,0,.24t.02.05v.94c0,.31.02.62,0,.94,0,.24-.05.48-.05.7-.02.07,0,.14,0,.19v1.25q0,.14.12.14l.26.05c.17,0,.31.02.46.02Z"/>
      <path class="cls-1" d="M71.09,6.58c0,.17.02.31.02.46v.65s-.02.02,0,.05c.05.26-.02.55-.02.82,0,.17-.07.34-.07.5-.07.12-.05.24-.05.36,0,.1-.02.19-.05.29-.07.12-.1.26-.12.41-.05.24-.12.5-.24.74-.05.07-.07.14-.1.22-.1.14-.17.26-.26.38-.02.05-.07.07-.1.1-.07.02-.12.07-.17.14-.02.07-.1.12-.17.14-.14.07-.31.17-.48.19-.12.02-.24.05-.34.1-.1.02-.19.07-.29.14-.02,0-.05.02-.07.05-.1.05-.14.02-.22-.05-.02-.02-.05-.07-.1-.1-.02-.05-.1-.07-.14-.07-.12-.02-.22-.07-.31-.12-.05-.02-.12,0-.14-.07,0,0-.05-.02-.07,0-.07.02-.12,0-.17-.02-.1-.07-.22-.12-.29-.22-.05-.02-.1-.05-.14-.1,0,0-.02,0-.05-.02-.31-.24-.58-.5-.65-.91l-.07-.26c-.05-.22-.12-.43-.17-.62v-.12c-.02-.07-.02-.14-.05-.22,0-.05,0-.1-.02-.17,0-.19-.02-.38-.05-.6v-.34c.02-.31.05-.65.1-.96.05-.34.12-.65.19-.96.02-.19.07-.38.12-.58.05-.17.07-.31.14-.46.1-.22.17-.46.26-.7.05-.12.14-.26.22-.38.02-.05.05-.07.07-.1.12-.34.38-.55.6-.84.07-.12.19-.19.34-.26.12-.07.24-.14.31-.26.05-.07.12-.1.22-.14.07-.02.12,0,.14.05l.05.05c.02.19.22.22.34.29l.22.14c.19.14.41.29.58.48.14.14.31.29.43.48.05.07.1.17.14.26.05.1.1.19.17.29.1.14.12.29.17.43.02.1.07.17.1.26.05.19.12.38.17.58.05.22.1.41.07.6ZM70.3,6.27c-.02-.1,0-.19-.02-.29-.07-.24-.17-.48-.24-.7-.02-.12-.05-.24-.12-.34-.14-.24-.36-.43-.55-.65-.12-.12-.29-.1-.41,0-.07.07-.17.12-.26.14-.22.07-.38.19-.5.38-.02.05-.07.1-.1.12-.14.05-.19.14-.22.26-.1.29-.24.58-.34.86-.12.26-.17.55-.26.82-.07.26-.07.5-.12.77-.05.24-.05.48-.12.7v.07c0,.1.05.22-.02.31-.02,0,0,.05,0,.07,0,.26,0,.53.02.79.02.31.05.6.12.89.02.1.05.14.12.22.05.07.12.12.22.17.29.17.62.17.94.17.14,0,.29-.02.41-.07.22-.05.38-.12.53-.29.12-.12.22-.26.36-.38.1-.1.17-.24.22-.38l.19-.7c.02-.14.05-.29.1-.46.02-.1,0-.22.02-.34,0-.17.02-.34.05-.5.02-.22.07-.46.02-.7-.02-.19-.02-.38.02-.58v-.05c-.07-.1-.05-.22-.05-.34Z"/>
      <path class="cls-1" d="M72.58,13.4c0-.41.02-.79.02-1.18,0-.17.02-.31.05-.46,0-.1-.02-.19-.02-.29,0-.02-.02-.07,0-.12.05-.1.02-.19.02-.29,0-.07.02-.17.02-.26-.02-.29,0-.6,0-.89,0-.17.02-.34.02-.48,0-.1-.02-.19-.02-.29v-.05c.05-.19-.02-.38.02-.6.02-.19,0-.38,0-.6.02-.31.02-.65.07-.96.02-.22.02-.43.02-.65.02-.17.05-.36.05-.53.02-.02.02-.05.02-.07,0-.22,0-.41.02-.62.02-.17.05-.34.05-.53.02-.17.02-.36.05-.53,0-.12.02-.24.02-.36s-.02-.24-.02-.36c0-.14.02-.26.05-.41.02-.12.02-.26.02-.38.02-.19.02-.38.05-.6,0-.1.02-.19.05-.29.02-.17.07-.36-.02-.53-.02-.05-.02-.07,0-.12.05-.02.07-.07.1-.1.07-.02.12-.07.17-.14.07-.1.14-.14.26-.14.07,0,.12,0,.17-.05.02,0,.07-.02.07,0,.14.07.29.1.38.24.07.12.14.19.22.29.07.05.1.1.1.17,0,.1,0,.19.05.26v.07c-.12.22-.1.43-.07.67,0,.17.02.31.02.48l-.07.89c0,.07-.05.12-.05.19-.02.17-.05.34.02.53.02.02,0,.07,0,.12,0,.07-.02.12-.02.19-.05.17-.07.36-.1.53,0,.1-.02.17-.05.26v.46c-.05.17-.07.31,0,.48.02.07.02.14-.02.24,0,0,0,.02-.02.05-.02.14-.05.29-.07.43v.14c.05.1.05.19,0,.29v.07c.07.19,0,.38,0,.6,0,.14-.05.29,0,.43.02.1,0,.19-.02.29-.02.05,0,.12,0,.17,0,.1,0,.17-.02.26,0,.1-.02.19.02.29.02.02.02.07.02.1,0,.14-.02.31-.02.46v.43c0,.19-.02.38-.02.6,0,.07,0,.14.02.22.02.17.02.31.02.46-.02.1,0,.19.02.29v.17s0,.1.02.14c.02.07.02.14,0,.22-.05.12-.07.22-.1.34v.84c0,.12.05.14.14.14.12,0,.24-.02.36-.02.19,0,.38-.05.58-.1.26-.05.5-.1.77-.17.07,0,.14-.05.22-.07.12-.07.26-.12.38-.14.17-.05.31-.1.46-.12.05-.02.07-.02.1,0,.07,0,.12.02.17,0,.02-.02.05-.02.07,0,.1,0,.19.02.29.02q.12.02.14.14c.02.07.05.14,0,.24-.02.02-.02.07,0,.1.07.12.05.24.02.36,0,.12-.1.19-.19.22-.12.02-.24.05-.34.05-.14,0-.26.02-.36.1-.05.07-.12.1-.22.12-.05,0-.1.05-.14.07-.07.07-.17.1-.26.07-.07,0-.14.02-.24.07-.17.1-.38.14-.6.19-.1,0-.17.02-.26.07-.12.02-.24.02-.38.02-.02-.02-.07-.02-.1,0-.12.07-.24.05-.38.07-.12,0-.26-.02-.41-.02-.17,0-.29-.05-.43-.1-.07-.02-.14-.07-.19-.14-.14-.14-.29-.29-.41-.43-.05-.05-.07-.1-.1-.14-.1-.14-.17-.29-.19-.46-.02-.22-.1-.43-.07-.62Z"/>
      <path class="cls-1" d="M79.32,3.27s.02-.12.05-.19l.07-.26c.02-.07.05-.1.1-.17.12-.12.24-.24.41-.34.02,0,.05-.02.07-.02.19,0,.38-.12.6-.1.1.02.17.05.22.14.14.19.22.38.17.62,0,.05-.02.1-.05.12l-.07.22c-.07.1-.14.17-.19.26l-.17.22c-.07.12-.19.19-.34.22-.12.02-.24.02-.36.02-.02,0-.07-.02-.1-.05-.07-.07-.14-.12-.19-.19-.1-.17-.22-.29-.22-.5ZM79.47,11.72c.02-.12.02-.24.05-.36v-.07c-.02-.22,0-.41,0-.62,0-.19,0-.38.02-.58.02-.1.07-.19.05-.29-.05-.19,0-.36-.02-.53,0-.5,0-1.01.02-1.51,0-.14.02-.31.02-.46.02-.02.02-.05.02-.07-.05-.17-.05-.36,0-.53.02-.1,0-.19.02-.29.05-.19.02-.36.05-.53,0-.07.05-.12.07-.17l.07-.14c0-.12.1-.19.19-.26.05-.05.38-.05.46,0,.05.05.1.12.12.19.05.07.07.17.12.26,0,.02.02.07,0,.1-.07.07-.02.14-.02.22,0,.17.05.34.02.5-.02.17.02.34.02.5v.89l.02.1c-.05.17.02.34.02.5,0,.07-.02.14-.05.19-.02.14,0,.29,0,.41.02.17.02.34.02.48,0,.07-.02.14-.02.19-.02.12-.02.22-.02.34-.02.19.02.38.07.55.02.1.05.17.02.24-.02.1-.02.19,0,.26.02.1.02.17-.05.24-.05.05-.05.12-.02.19.02.02,0,.07,0,.12,0,.02-.02.07,0,.12.02.19-.05.36-.14.5-.07.14-.19.29-.38.24-.17-.02-.34-.07-.48-.12-.14-.07-.24-.22-.24-.38-.02-.14-.02-.29-.05-.43Z"/>
      <path class="cls-1" d="M87.6,6.58c0,.17.02.31.02.46v.65s-.02.02,0,.05c.05.26-.02.55-.02.82,0,.17-.07.34-.07.5-.07.12-.05.24-.05.36,0,.1-.02.19-.05.29-.07.12-.1.26-.12.41-.05.24-.12.5-.24.74-.05.07-.07.14-.1.22-.1.14-.17.26-.26.38-.02.05-.07.07-.1.1-.07.02-.12.07-.17.14-.02.07-.1.12-.17.14-.14.07-.31.17-.48.19-.12.02-.24.05-.34.1-.1.02-.19.07-.29.14-.02,0-.05.02-.07.05-.1.05-.14.02-.22-.05-.02-.02-.05-.07-.1-.1-.02-.05-.1-.07-.14-.07-.12-.02-.22-.07-.31-.12-.05-.02-.12,0-.14-.07,0,0-.05-.02-.07,0-.07.02-.12,0-.17-.02-.1-.07-.22-.12-.29-.22-.05-.02-.1-.05-.14-.1,0,0-.02,0-.05-.02-.31-.24-.58-.5-.65-.91l-.07-.26c-.05-.22-.12-.43-.17-.62v-.12c-.02-.07-.02-.14-.05-.22,0-.05,0-.1-.02-.17,0-.19-.02-.38-.05-.6v-.34c.02-.31.05-.65.1-.96.05-.34.12-.65.19-.96.02-.19.07-.38.12-.58.05-.17.07-.31.14-.46.1-.22.17-.46.26-.7.05-.12.14-.26.22-.38.02-.05.05-.07.07-.1.12-.34.38-.55.6-.84.07-.12.19-.19.34-.26.12-.07.24-.14.31-.26.05-.07.12-.1.22-.14.07-.02.12,0,.14.05l.05.05c.02.19.22.22.34.29l.22.14c.19.14.41.29.58.48.14.14.31.29.43.48.05.07.1.17.14.26.05.1.1.19.17.29.1.14.12.29.17.43.02.1.07.17.1.26.05.19.12.38.17.58.05.22.1.41.07.6ZM86.81,6.27c-.02-.1,0-.19-.02-.29-.07-.24-.17-.48-.24-.7-.02-.12-.05-.24-.12-.34-.14-.24-.36-.43-.55-.65-.12-.12-.29-.1-.41,0-.07.07-.17.12-.26.14-.22.07-.38.19-.5.38-.02.05-.07.1-.1.12-.14.05-.19.14-.22.26-.1.29-.24.58-.34.86-.12.26-.17.55-.26.82-.07.26-.07.5-.12.77-.05.24-.05.48-.12.7v.07c0,.1.05.22-.02.31-.02,0,0,.05,0,.07,0,.26,0,.53.02.79.02.31.05.6.12.89.02.1.05.14.12.22.05.07.12.12.22.17.29.17.62.17.94.17.14,0,.29-.02.41-.07.22-.05.38-.12.53-.29.12-.12.22-.26.36-.38.1-.1.17-.24.22-.38l.19-.7c.02-.14.05-.29.1-.46.02-.1,0-.22.02-.34,0-.17.02-.34.05-.5.02-.22.07-.46.02-.7-.02-.19-.02-.38.02-.58v-.05c-.07-.1-.05-.22-.05-.34Z"/>
    </g>
  </g>
</svg>