<?xml version="1.0" encoding="UTF-8"?>
<svg id="Calque_2" data-name="Calque 2" xmlns="http://www.w3.org/2000/svg" viewBox="0 0 101.23 15.54">
  <defs>
    <style>
      .cls-1 {
        fill: #fff;
      }
    </style>
  </defs>
  <g id="Landing_page" data-name="Landing page">
    <g>
      <path class="cls-1" d="M5.5,3.11c0,.22.02.43.02.65l.02.1c.07.12.02.26.02.38.02.07,0,.17-.02.24-.05.12-.02.24,0,.36l.14.55c.02.1.02.19.07.26.07.19.1.38.12.58l.07.24c.12.31.24.62.29.96.02.22.05.43.12.65.05.17.07.36.1.53.02.1.05.22.07.31l.14.5s.02.05.02.07c0,.07-.02.17,0,.24l.07.26c0,.1.02.17.05.26l.26.91c.07.26.17.55.26.82.1.19.17.41.19.65,0,.1.05.17.12.17s.1-.07.1-.17c.02-.22.07-.43.1-.65.02-.22.07-.46.12-.67.05-.24.07-.48.14-.7.02-.1.05-.17.05-.24l.19-1.06c.05-.34.1-.7.14-1.06l.14-.94c.02-.17.02-.34.05-.5v-.07c.1-.29.1-.58.12-.86l.07-.48c.05-.22.1-.46.1-.7.02-.22.07-.43.07-.65-.02-.19.02-.36.05-.53.02-.07.02-.14.02-.24,0-.02,0-.07.02-.12.02-.29.07-.6.12-.89-.05-.17.05-.31.05-.46,0-.17.02-.31.05-.46.02-.17.05-.36.05-.53.02-.07,0-.12-.02-.19-.02-.07-.02-.14,0-.24,0-.05.02-.1.02-.14-.02-.07.05-.14.07-.22.02,0,.02-.02.05-.02.12,0,.26-.1.41,0,.05.05.12.05.14.12.02.12.1.19.07.31v.77c.07.24-.02.48,0,.72.02,0,.02.02,0,.05l-.07.5s-.02.1-.02.17c.02.17.02.34-.05.5,0,.02,0,.07-.02.12v.43s0,.07-.02.1c-.05.19-.05.41-.05.6v.07c-.07.05-.05.1-.02.17v.19c-.05.38-.1.74-.1,1.13,0,.07,0,.12-.02.19,0,.14,0,.31-.02.48,0,.05-.02.12-.05.17-.02.17-.07.34-.1.53,0,.17-.02.36-.02.53,0,.02-.02.02-.02.05,0,.24-.07.46-.1.7-.02.12-.02.24-.02.36-.02.07-.02.12-.05.19v.12c-.02.07-.02.14-.02.19-.02.02-.02.07-.02.1.07.17,0,.31-.05.48-.05.12-.1.26-.12.38-.02.07-.02.14-.07.22v.07s.02.05,0,.05c-.07.1-.02.19-.02.29-.02.19-.07.36-.14.55-.07.17-.12.36-.12.55,0,.1-.02.17-.05.24-.02.02-.05.07-.05.12-.02.1-.02.19-.05.31,0,.02-.02.05-.02.07,0,.29-.1.55-.17.84-.02.12-.05.22-.02.34.02.07,0,.12-.02.17-.05.1-.05.17-.07.26,0,.05-.02.12-.05.17-.12.14-.26.29-.43.38-.07.02-.12.05-.17,0-.12-.1-.24-.14-.31-.26l-.05-.05c-.1-.26-.26-.5-.31-.77-.05-.14-.1-.26-.19-.38-.12-.12-.17-.29-.19-.43-.05-.24-.12-.46-.22-.67-.05-.07-.07-.17-.1-.24-.05-.26-.14-.5-.22-.74-.07-.12-.1-.26-.12-.41-.07-.31-.14-.6-.22-.91l-.07-.43s-.05-.12-.07-.19l-.14-.67c-.05-.22-.05-.46-.14-.67-.05-.17-.07-.34-.1-.5l-.07-.22c-.07-.22-.12-.43-.17-.67-.05-.26-.1-.53-.19-.79,0-.02-.02-.07-.07-.07-.07,0-.1.05-.1.1-.02.1-.05.19-.07.31l-.07.41c-.02.17-.07.34-.14.5-.02.02-.02.07-.02.12.02.24,0,.48-.05.72-.02.19-.07.41-.1.62-.02.05-.02.07,0,.12.02.14-.02.29-.07.43-.02.05-.02.1-.02.14-.02.07-.02.12-.02.19,0,.02-.02.05,0,.07.07.14-.05.29-.05.46,0,0,0,.02-.02.02-.12.14-.12.31-.19.46l-.07.29c-.02.14-.1.29-.1.43,0,.05-.02.1-.05.12-.07.14-.1.29-.07.43,0,.1.02.19-.02.29-.02.02-.02.05-.02.07.05.17-.02.31-.1.46-.07.26-.17.53-.19.79-.02.07-.02.14-.07.22-.05.14-.07.29-.05.43.02.1.02.17-.02.26-.07.12-.05.26-.14.38,0,.02-.02.05,0,.07.02.1-.02.17-.1.24l-.26.31c-.07.07-.12.07-.19.02-.05-.05-.1-.07-.14-.14-.07-.1-.14-.22-.24-.34v-.05c-.02-.26-.1-.5-.19-.74,0,0-.02-.02-.02-.05-.05-.36-.22-.7-.26-1.06,0-.1-.05-.19-.07-.26-.02-.14-.05-.26-.05-.41l-.17-.6c-.05-.19-.1-.36-.1-.55.02-.1.02-.19-.02-.26-.02,0-.02-.02-.02-.05.02-.19-.02-.38-.07-.58,0-.05,0-.07-.02-.1-.07-.26-.12-.53-.19-.79-.02-.05-.02-.07-.02-.1-.02-.38-.1-.72-.17-1.08-.02-.05,0-.12-.02-.17v-.14c-.05-.19-.1-.38-.12-.58,0-.12,0-.24-.05-.36-.02-.02,0-.1,0-.12-.02-.07-.02-.12-.02-.17-.02-.1-.02-.17-.05-.26l-.07-.36c-.05-.24-.07-.48-.12-.72C-.02,4.72,0,3.96,0,3.21v-1.42c0-.1.02-.19.05-.29,0-.1.02-.19,0-.26,0-.19.07-.29.22-.36.19-.12.34-.07.5,0,0,.02.02.02.02.02.05.14.19.22.26.34.07.14.12.31.12.48.02.1.02.22.02.31.02.02.02.07,0,.1-.02.07,0,.17,0,.24.05.29.05.58,0,.86-.02.19-.02.36-.02.55,0,.05,0,.1.02.14.05.1.02.22.05.34v.07c.05.24.02.48.05.72,0,.07,0,.17-.02.26v.43s-.02.05,0,.07c.07.14.02.31.05.46.02.07.02.12.05.17.02.17.07.34.1.48.02.12.07.22.07.31v.72c.02.12.02.26.07.38.02.1.05.22.02.31-.02.1.05.17.07.26.05.14.12.26.14.41s.02.31.02.46c-.02.29,0,.58.1.86.02.02,0,.07,0,.12,0,.1,0,.19.05.31.07.1.1.22.1.34,0,.14,0,.29.05.43.02.05.02.1.02.17-.02.12.02.24.07.36,0,.05.05.1.07.1.05,0,.05-.05.05-.1.05-.14.07-.29.1-.43.07-.38.12-.74.17-1.1.02-.19.05-.38.07-.58v-.17c.07-.34.12-.67.19-1.01.02-.24.02-.48.07-.72.02-.07.02-.17.05-.26.07-.19.1-.38.1-.6.02-.19.05-.41.12-.6v-.19c0-.12,0-.22.02-.31l.07-.38c.05-.19.1-.36.19-.53.07-.19.12-.36.14-.55.02-.17.07-.31.1-.46l.14-.91c.05-.26.14-.53.26-.77.12-.07.12-.22.22-.31.05-.05.07-.12.07-.19,0-.1.05-.14.14-.17l.24-.1c.12-.05.34.05.41.14l.05.07c.14.1.14.24.14.38.02.17.02.31.05.48Z"/>
      <path class="cls-1" d="M16.75,6.81c0,.17.02.31.02.46v.65s-.02.02,0,.05c.05.26-.02.55-.02.82,0,.17-.07.34-.07.5-.07.12-.05.24-.05.36,0,.1-.02.19-.05.29-.07.12-.1.26-.12.41-.05.24-.12.5-.24.74-.05.07-.07.14-.1.22-.1.14-.17.26-.26.38-.02.05-.07.07-.1.1-.07.02-.12.07-.17.14-.02.07-.1.12-.17.14-.14.07-.31.17-.48.19-.12.02-.24.05-.34.1-.1.02-.19.07-.29.14-.02,0-.05.02-.07.05-.1.05-.14.02-.22-.05-.02-.02-.05-.07-.1-.1-.02-.05-.1-.07-.14-.07-.12-.02-.22-.07-.31-.12-.05-.02-.12,0-.14-.07,0,0-.05-.02-.07,0-.07.02-.12,0-.17-.02-.1-.07-.22-.12-.29-.22-.05-.02-.1-.05-.14-.1,0,0-.02,0-.05-.02-.31-.24-.58-.5-.65-.91l-.07-.26c-.05-.22-.12-.43-.17-.62v-.12c-.02-.07-.02-.14-.05-.22,0-.05,0-.1-.02-.17,0-.19-.02-.38-.05-.6v-.34c.02-.31.05-.65.1-.96.05-.34.12-.65.19-.96.02-.19.07-.38.12-.58.05-.17.07-.31.14-.46.1-.22.17-.46.26-.7.05-.12.14-.26.22-.38.02-.05.05-.07.07-.1.12-.34.38-.55.6-.84.07-.12.19-.19.34-.26.12-.07.24-.14.31-.26.05-.07.12-.1.22-.14.07-.02.12,0,.14.05l.05.05c.02.19.22.22.34.29l.22.14c.19.14.41.29.58.48.14.14.31.29.43.48.05.07.1.17.14.26.05.1.1.19.17.29.1.14.12.29.17.43.02.1.07.17.1.26.05.19.12.38.17.58.05.22.1.41.07.6ZM15.96,6.5c-.02-.1,0-.19-.02-.29-.07-.24-.17-.48-.24-.7-.02-.12-.05-.24-.12-.34-.14-.24-.36-.43-.55-.65-.12-.12-.29-.1-.41,0-.07.07-.17.12-.26.14-.22.07-.38.19-.5.38-.02.05-.07.1-.1.12-.14.05-.19.14-.22.26-.1.29-.24.58-.34.86-.12.26-.17.55-.26.82-.07.26-.07.5-.12.77-.05.24-.05.48-.12.7v.07c0,.1.05.22-.02.31-.02,0,0,.05,0,.07,0,.26,0,.53.02.79.02.31.05.6.12.89.02.1.05.14.12.22.05.07.12.12.22.17.29.17.62.17.94.17.14,0,.29-.02.41-.07.22-.05.38-.12.53-.29.12-.12.22-.26.36-.38.1-.1.17-.24.22-.38l.19-.7c.02-.14.05-.29.1-.46.02-.1,0-.22.02-.34,0-.17.02-.34.05-.5.02-.22.07-.46.02-.7-.02-.19-.02-.38.02-.58v-.05c-.07-.1-.05-.22-.05-.34Z"/>
      <path class="cls-1" d="M18.38,14.23c0-.24,0-.48-.02-.7,0-.07.02-.17.02-.24v-.07c-.07-.6-.07-1.22-.1-1.82,0-.07-.02-.12-.02-.19v-.5c0-.36,0-.72-.02-1.08v-.48c0-.14.02-.29.02-.43,0-.02.02-.05,0-.05-.05-.34-.02-.67-.02-.98v-2.66c0-.19.05-.36.05-.55v-1.63c.02-.14.02-.26,0-.41,0-.14-.02-.26-.02-.41,0-.07.02-.12.02-.19.02-.17.05-.36.05-.55,0-.05,0-.12.02-.17.02-.05.05-.07.07-.07.07-.05.14-.1.17-.17,0-.02.02-.05.05-.05.14-.07.29-.14.43-.14.05,0,.1,0,.12.02.05.07.14.07.22.07.24-.02.48-.02.72,0,.19,0,.38.02.58.05.17.05.36.12.53.17l.41.07c.19.02.36.12.53.17.12.02.19.07.29.14.1.05.19.1.29.17.02,0,.05.02.07.05.12.14.26.24.41.34.05.02.07.05.1.1.1.17.17.34.24.5.19.34.14.7.1,1.06-.02.31-.12.58-.26.84-.05.1-.12.14-.17.24-.14.17-.34.31-.46.48-.02.05-.07.07-.1.12-.02.02-.05.07-.1.07-.12.05-.17.17-.29.22-.1.02-.19.12-.26.19-.22.12-.43.29-.67.36-.07.02-.14.02-.19.05-.07.02-.1.07-.05.14.07.07.17.14.24.24.05.05.12.1.17.17l.34.43c.07.12.17.24.17.38,0,.02,0,.05.02.07.12.31.22.65.29.98.02.12.02.26.05.38.07.38.05.77.1,1.15.02.24.05.48.1.72.02.24.07.48.12.72.05.22.1.41.22.6.07.14.22.26.41.26h.07c.17.05.22.1.17.26-.05.19-.17.29-.36.29h-.22c-.17-.05-.34-.12-.5-.19-.07,0-.12-.05-.17-.1-.05-.02-.07-.1-.14-.12-.1-.05-.14-.1-.19-.19-.19-.29-.34-.58-.36-.94-.02-.24-.1-.48-.12-.72l-.07-.65c0-.19,0-.41-.05-.6-.02-.19-.02-.38-.05-.58-.05-.14-.05-.31-.1-.48-.05-.12-.05-.26-.07-.38-.05-.19-.12-.38-.22-.58-.02-.05-.07-.1-.12-.14-.05-.07-.12-.14-.19-.19-.17-.22-.36-.41-.62-.5-.12-.05-.24-.05-.38-.07-.1-.02-.14.05-.12.14.02.07.02.14.02.22,0,.14-.02.29-.02.43,0,.26.02.53.02.79.02.07.02.14.05.24v.07c.02.31.02.62,0,.94,0,.19,0,.36-.1.55v.05c.07.14.05.29.05.43-.02.19,0,.41.02.6v.29c.02.31.02.65.05.98,0,.17.05.31.07.48.02.24.05.48.05.72,0,.1-.02.19-.05.29v.02c.02.14-.05.29-.02.46v.02c-.02.22.02.41-.02.62l-.07.43c-.02.14-.07.19-.24.19-.02,0-.07,0-.12.02-.24.02-.41-.1-.55-.29-.12-.14-.22-.34-.22-.53-.02-.17-.05-.34-.05-.48ZM22.61,2.95c.02-.14-.05-.31-.1-.48-.05-.19-.19-.31-.38-.36-.14-.05-.29-.07-.41-.12-.24-.14-.53-.19-.79-.24-.24-.05-.5-.07-.77-.07-.02,0-.07,0-.1-.02-.14-.02-.26,0-.41.02-.12.02-.14.05-.14.19,0,.31.05.6.02.89,0,.05.02.07.02.12.02.14.05.29,0,.43-.02.14,0,.26,0,.41-.02.05,0,.07,0,.12,0,.29.05.6,0,.89-.02.02-.02.05,0,.07.02.1,0,.22-.02.34-.02.14-.02.29-.02.43,0,.07.05.1.12.05.17-.1.31-.22.5-.26.22-.05.43-.14.62-.22l.62-.22c.1-.05.17-.1.24-.17.05-.07.12-.12.19-.17.05-.05.12-.07.17-.12.12-.12.22-.24.29-.36.07-.1.14-.19.19-.29.1-.26.17-.53.14-.86Z"/>
      <path class="cls-1" d="M25.34,11.78c-.02-.17-.05-.34-.05-.5-.02-.07-.02-.14-.02-.22,0-.17-.02-.34,0-.5-.1-.6-.05-1.22-.07-1.85v-.22c-.02-.17-.05-.34-.05-.5v-1.3s.02-.1.02-.14c0-.1,0-.22-.02-.31v-.12c.02-.53,0-1.06,0-1.58v-2.04c-.02-.24.05-.46.1-.67,0-.07.02-.14.02-.22,0-.22.07-.41.17-.58.02-.02.05-.07.05-.1.02-.12.1-.24.22-.29.1-.05.17-.12.26-.1.1,0,.12.02.17.12.02.1.07.19.12.29.02.05.05.1.05.14,0,.24.02.5.02.77l.02.17c.05.12.07.24,0,.36-.02.02-.02.07-.02.12s.02.1.02.14c.05.17-.02.36-.02.55,0,.1-.02.22.02.34v.12c0,.07-.02.17,0,.26.02.05-.02.1-.02.14v1.34s0,.07,0,.1c.02.05,0,.1.02.12.02.1.05.19.05.29.02.26.07.5.07.77,0,.14,0,.29-.02.43-.02.12,0,.22.02.34v.19s-.02.05-.02.05c.07.14,0,.29,0,.41v.43c0,.14-.02.29-.05.43,0,.07-.02.12,0,.17.07.12.05.26.05.38-.02.22.02.22.19.17.19-.05.36-.02.55-.02.14.02.29,0,.41.07.02.02.07.02.12.02.17-.02.29.05.38.14.12.12.26.14.38.24.05.02.07,0,.12-.02.1-.12.22-.22.34-.31.1-.1.14-.24.24-.34.19-.24.41-.46.58-.7.17-.24.38-.46.53-.72.07-.14.19-.29.29-.41,0-.02.02-.05.02-.07.1-.22.24-.41.34-.62.05-.1.1-.17.12-.26.07-.12.12-.24.17-.36.1-.14.17-.26.22-.43.02-.07.07-.14.12-.24.02-.1.07-.22.1-.34.12-.29.19-.6.34-.89.1-.19.14-.38.22-.6v-.14c.02-.14.05-.29.1-.43,0-.02,0-.05.02-.07.07-.12.12-.26.14-.41.02-.17.07-.34.07-.5v-.12c.05-.14.07-.29.12-.43,0-.02,0-.05.02-.1.07-.14.1-.31.12-.48,0-.17.1-.29.19-.41.02-.02.07-.02.07-.05.12-.17.29-.17.46-.17.07,0,.1.02.12.1v.1c.02.07.05.17.12.24.05.05.07.1.02.14-.02.05,0,.12,0,.17-.02.14,0,.26-.05.41-.05.1-.05.22-.02.31v.14l-.07.19c-.07.22-.14.43-.19.67-.02.1-.02.22-.02.31,0,.22-.02.41-.12.58-.05.05-.05.12-.05.19.02.07,0,.14-.05.22-.1.12-.14.26-.14.41.02.05,0,.1-.02.14,0,.07-.02.14-.02.19,0,.12-.05.22-.1.31-.05.07-.07.14-.1.22-.07.17-.17.34-.22.5-.02.14-.1.26-.1.41.02.05,0,.1-.02.14-.05.12-.12.26-.22.38-.02,0-.02.02-.05.05-.07.22-.24.38-.34.6-.05.07-.07.17-.1.26,0,.02-.02.05-.02.07-.12.12-.19.29-.34.41-.07.07-.1.17-.17.26-.05.05-.07.12-.12.17-.02.02-.07.07-.07.1-.02.12-.12.17-.19.24-.07.12-.17.22-.24.31-.05.05-.07.07-.12.1-.07.05-.14.12-.19.17l-.26.34c-.12.1-.24.19-.36.26-.12.07-.26.14-.31.29-.02.05-.1.1-.1.14,0,.02.05.1.1.14l.24.31c.1.17.19.31.26.46.05.07.1.17.12.24.05.07.1.14.14.22l.14.31c.02.1.1.17.17.26.07.07.12.19.14.29.1.24.17.48.26.7.1.22.14.43.19.67.02.19.05.38-.02.55-.02.12-.05.22-.1.31-.02.05-.07.1-.12.14-.05.02-.12.02-.17,0-.1-.1-.19-.1-.31-.17-.05-.02-.1-.05-.12-.12-.05-.1-.07-.22-.14-.31-.02-.02-.05-.1-.05-.14,0-.14-.05-.29-.1-.43-.02-.1-.07-.19-.07-.31-.05-.22-.14-.41-.26-.58-.07-.14-.14-.26-.19-.41-.02-.14-.07-.26-.19-.36-.1-.07-.12-.19-.17-.31l-.07-.14c-.12-.14-.24-.31-.36-.46l-.07-.07c-.07-.1-.12-.1-.24-.05-.05.02-.1.02-.14.02-.14,0-.24.05-.31.14-.12.12-.29.14-.48.14-.14-.02-.31-.02-.46.07-.07.07-.19.1-.31.14-.1.02-.1.05-.12.14v.29c0,.12,0,.22.02.34.02.31.02.65.07.96,0,.12.05.26.07.41.02.05.02.12.02.17,0,.19.02.36.02.55,0,.12,0,.22-.07.34v.12c-.02.1-.07.17-.17.17-.29.02-.5-.05-.62-.34-.05-.07-.07-.17-.07-.24-.02-.14-.05-.31-.07-.46l-.07-.34c-.05-.17-.1-.36-.12-.53-.05-.38-.07-.74-.12-1.1-.02-.24-.07-.48-.05-.74ZM26.78,11.11s.1,0,.12-.02c.19-.07.38-.17.58-.24.07-.02.12-.05.19-.1.05-.02.05-.07,0-.1-.07-.05-.17-.1-.24-.12-.19,0-.38-.07-.58,0,0,.02-.02,0-.05,0-.17,0-.24.05-.29.22-.05.14.12.36.26.36Z"/>
      <path class="cls-1" d="M49.15,3.11c0,.22.02.43.02.65l.02.1c.07.12.02.26.02.38.02.07,0,.17-.02.24-.05.12-.02.24,0,.36l.14.55c.02.1.02.19.07.26.07.19.1.38.12.58l.07.24c.12.31.24.62.29.96.02.22.05.43.12.65.05.17.07.36.1.53.02.1.05.22.07.31l.14.5s.02.05.02.07c0,.07-.02.17,0,.24l.07.26c0,.1.02.17.05.26l.26.91c.07.26.17.55.26.82.1.19.17.41.19.65,0,.1.05.17.12.17s.1-.07.1-.17c.02-.22.07-.43.1-.65.02-.22.07-.46.12-.67.05-.24.07-.48.14-.7.02-.1.05-.17.05-.24l.19-1.06c.05-.34.1-.7.14-1.06l.14-.94c.02-.17.02-.34.05-.5v-.07c.1-.29.1-.58.12-.86l.07-.48c.05-.22.1-.46.1-.7.02-.22.07-.43.07-.65-.02-.19.02-.36.05-.53.02-.07.02-.14.02-.24,0-.02,0-.07.02-.12.02-.29.07-.6.12-.89-.05-.17.05-.31.05-.46,0-.17.02-.31.05-.46.02-.17.05-.36.05-.53.02-.07,0-.12-.02-.19-.02-.07-.02-.14,0-.24,0-.05.02-.1.02-.14-.02-.07.05-.14.07-.22.02,0,.02-.02.05-.02.12,0,.26-.1.41,0,.05.05.12.05.14.12.02.12.1.19.07.31v.77c.07.24-.02.48,0,.72.02,0,.02.02,0,.05l-.07.5s-.02.1-.02.17c.02.17.02.34-.05.5,0,.02,0,.07-.02.12v.43s0,.07-.02.1c-.05.19-.05.41-.05.6v.07c-.07.05-.05.1-.02.17v.19c-.05.38-.1.74-.1,1.13,0,.07,0,.12-.02.19,0,.14,0,.31-.02.48,0,.05-.02.12-.05.17-.02.17-.07.34-.1.53,0,.17-.02.36-.02.53,0,.02-.02.02-.02.05,0,.24-.07.46-.1.7-.02.12-.02.24-.02.36-.02.07-.02.12-.05.19v.12c-.02.07-.02.14-.02.19-.02.02-.02.07-.02.1.07.17,0,.31-.05.48-.05.12-.1.26-.12.38-.02.07-.02.14-.07.22v.07s.02.05,0,.05c-.07.1-.02.19-.02.29-.02.19-.07.36-.14.55-.07.17-.12.36-.12.55,0,.1-.02.17-.05.24-.02.02-.05.07-.05.12-.02.1-.02.19-.05.31,0,.02-.02.05-.02.07,0,.29-.1.55-.17.84-.02.12-.05.22-.02.34.02.07,0,.12-.02.17-.05.1-.05.17-.07.26,0,.05-.02.12-.05.17-.12.14-.26.29-.43.38-.07.02-.12.05-.17,0-.12-.1-.24-.14-.31-.26l-.05-.05c-.1-.26-.26-.5-.31-.77-.05-.14-.1-.26-.19-.38-.12-.12-.17-.29-.19-.43-.05-.24-.12-.46-.22-.67-.05-.07-.07-.17-.1-.24-.05-.26-.14-.5-.22-.74-.07-.12-.1-.26-.12-.41-.07-.31-.14-.6-.22-.91l-.07-.43s-.05-.12-.07-.19l-.14-.67c-.05-.22-.05-.46-.14-.67-.05-.17-.07-.34-.1-.5l-.07-.22c-.07-.22-.12-.43-.17-.67-.05-.26-.1-.53-.19-.79,0-.02-.02-.07-.07-.07-.07,0-.1.05-.1.1-.02.1-.05.19-.07.31l-.07.41c-.02.17-.07.34-.14.5-.02.02-.02.07-.02.12.02.24,0,.48-.05.72-.02.19-.07.41-.1.62-.02.05-.02.07,0,.12.02.14-.02.29-.07.43-.02.05-.02.1-.02.14-.02.07-.02.12-.02.19,0,.02-.02.05,0,.07.07.14-.05.29-.05.46,0,0,0,.02-.02.02-.12.14-.12.31-.19.46l-.07.29c-.02.14-.1.29-.1.43,0,.05-.02.1-.05.12-.07.14-.1.29-.07.43,0,.1.02.19-.02.29-.02.02-.02.05-.02.07.05.17-.02.31-.1.46-.07.26-.17.53-.19.79-.02.07-.02.14-.07.22-.05.14-.07.29-.05.43.02.1.02.17-.02.26-.07.12-.05.26-.14.38,0,.02-.02.05,0,.07.02.1-.02.17-.1.24l-.26.31c-.07.07-.12.07-.19.02-.05-.05-.1-.07-.14-.14-.07-.1-.14-.22-.24-.34v-.05c-.02-.26-.1-.5-.19-.74,0,0-.02-.02-.02-.05-.05-.36-.22-.7-.26-1.06,0-.1-.05-.19-.07-.26-.02-.14-.05-.26-.05-.41l-.17-.6c-.05-.19-.1-.36-.1-.55.02-.1.02-.19-.02-.26-.02,0-.02-.02-.02-.05.02-.19-.02-.38-.07-.58,0-.05,0-.07-.02-.1-.07-.26-.12-.53-.19-.79-.02-.05-.02-.07-.02-.1-.02-.38-.1-.72-.17-1.08-.02-.05,0-.12-.02-.17v-.14c-.05-.19-.1-.38-.12-.58,0-.12,0-.24-.05-.36-.02-.02,0-.1,0-.12-.02-.07-.02-.12-.02-.17-.02-.1-.02-.17-.05-.26l-.07-.36c-.05-.24-.07-.48-.12-.72-.14-.74-.12-1.51-.12-2.26v-1.42c0-.1.02-.19.05-.29,0-.1.02-.19,0-.26,0-.19.07-.29.22-.36.19-.12.34-.07.5,0,0,.02.02.02.02.02.05.14.19.22.26.34.07.14.12.31.12.48.02.1.02.22.02.31.02.02.02.07,0,.1-.02.07,0,.17,0,.24.05.29.05.58,0,.86-.02.19-.02.36-.02.55,0,.05,0,.1.02.14.05.1.02.22.05.34v.07c.05.24.02.48.05.72,0,.07,0,.17-.02.26v.43s-.02.05,0,.07c.07.14.02.31.05.46.02.07.02.12.05.17.02.17.07.34.1.48.02.12.07.22.07.31v.72c.02.12.02.26.07.38.02.1.05.22.02.31-.02.1.05.17.07.26.05.14.12.26.14.41s.02.31.02.46c-.02.29,0,.58.1.86.02.02,0,.07,0,.12,0,.1,0,.19.05.31.07.1.1.22.1.34,0,.14,0,.29.05.43.02.05.02.1.02.17-.02.12.02.24.07.36,0,.05.05.1.07.1.05,0,.05-.05.05-.1.05-.14.07-.29.1-.43.07-.38.12-.74.17-1.1.02-.19.05-.38.07-.58v-.17c.07-.34.12-.67.19-1.01.02-.24.02-.48.07-.72.02-.07.02-.17.05-.26.07-.19.1-.38.1-.6.02-.19.05-.41.12-.6v-.19c0-.12,0-.22.02-.31l.07-.38c.05-.19.1-.36.19-.53.07-.19.12-.36.14-.55.02-.17.07-.31.1-.46l.14-.91c.05-.26.14-.53.26-.77.12-.07.12-.22.22-.31.05-.05.07-.12.07-.19,0-.1.05-.14.14-.17l.24-.1c.12-.05.34.05.41.14l.05.07c.14.1.14.24.14.38.02.17.02.31.05.48Z"/>
      <path class="cls-1" d="M55.27,3.5s.02-.12.05-.19l.07-.26c.02-.07.05-.1.1-.17.12-.12.24-.24.41-.34.02,0,.05-.02.07-.02.19,0,.38-.12.6-.1.1.02.17.05.22.14.14.19.22.38.17.62,0,.05-.02.1-.05.12l-.07.22c-.07.1-.14.17-.19.26l-.17.22c-.07.12-.19.19-.34.22-.12.02-.24.02-.36.02-.02,0-.07-.02-.1-.05-.07-.07-.14-.12-.19-.19-.1-.17-.22-.29-.22-.5ZM55.42,11.95c.02-.12.02-.24.05-.36v-.07c-.02-.22,0-.41,0-.62,0-.19,0-.38.02-.58.02-.1.07-.19.05-.29-.05-.19,0-.36-.02-.53,0-.5,0-1.01.02-1.51,0-.14.02-.31.02-.46.02-.02.02-.05.02-.07-.05-.17-.05-.36,0-.53.02-.1,0-.19.02-.29.05-.19.02-.36.05-.53,0-.07.05-.12.07-.17l.07-.14c0-.12.1-.19.19-.26.05-.05.38-.05.46,0,.05.05.1.12.12.19.05.07.07.17.12.26,0,.02.02.07,0,.1-.07.07-.02.14-.02.22,0,.17.05.34.02.5-.02.17.02.34.02.5v.89l.02.1c-.05.17.02.34.02.5,0,.07-.02.14-.05.19-.02.14,0,.29,0,.41.02.17.02.34.02.48,0,.07-.02.14-.02.19-.02.12-.02.22-.02.34-.02.19.02.38.07.55.02.1.05.17.02.24-.02.1-.02.19,0,.26.02.1.02.17-.05.24-.05.05-.05.12-.02.19.02.02,0,.07,0,.12,0,.02-.02.07,0,.12.02.19-.05.36-.14.5-.07.14-.19.29-.38.24-.17-.02-.34-.07-.48-.12-.14-.07-.24-.22-.24-.38-.02-.14-.02-.29-.05-.43Z"/>
      <path class="cls-1" d="M61.97,13.96c0-.17.02-.34.02-.5,0-.12-.02-.22-.02-.31.02-.29.05-.58.07-.84v-.14c.02-.26.05-.5.05-.74,0-.29.05-.58.07-.86.02-.34.05-.65.05-.98.02-.19.02-.38.02-.58,0-.31,0-.62.05-.91.02-.24,0-.48,0-.72v-.74c0-.29,0-.58.02-.86.05-.53.05-1.08.02-1.61,0-.34-.02-.67-.05-1.01v-.38c0-.24,0-.5-.05-.74-.02-.1-.02-.12-.14-.1-.24,0-.48,0-.7.02-.24.05-.46,0-.67.02h-.65c-.07,0-.14.02-.22.02-.05.02-.1.05-.12.07-.07.07-.12.17-.19.26-.07.1-.19.14-.31.1-.14-.02-.24-.07-.34-.19-.05-.07-.12-.14-.14-.24,0-.02-.02-.05-.05-.07-.1-.05-.12-.14-.12-.24-.05-.14-.07-.26-.1-.41,0-.02,0-.05-.02-.07-.05-.07-.05-.14-.02-.22,0-.02-.02-.07-.02-.12v-.17c0-.07.05-.1.12-.12.12-.02.24-.05.36-.07h.05c.12-.12.26-.07.41-.05.02,0,.05.02.07.02.22,0,.46,0,.67-.02.22-.02.43-.05.62-.07l.74-.07c.31-.02.62-.07.94-.05.17,0,.31-.05.48-.02.29,0,.58.02.86.05.22,0,.41.02.6.05l.38.07s.1,0,.14.02c.24,0,.48.1.72.17.19.05.34.17.38.38.05.19.07.41-.05.6-.05.05-.1.1-.19.1h-.5c-.07-.02-.14,0-.22,0l-.96.07c-.17,0-.34.02-.5.05-.14.02-.19.07-.22.22-.02.19-.05.38.02.55v.1c-.02.1,0,.17,0,.26s.02.19.02.31c.02.29.05.58.07.89v.02c0,.14,0,.29-.02.41-.02.24-.05.48,0,.72,0,.05,0,.1-.02.14v.12c0,.07.02.17,0,.26-.02.07,0,.14-.02.22,0,.12,0,.24-.02.36-.05.1-.02.22,0,.31,0,.1,0,.19-.05.29-.02.1-.02.19-.02.29,0,.17.02.31,0,.48-.02.22-.02.43-.02.67,0,.1,0,.22-.02.34,0,.14-.02.31,0,.48,0,.12-.02.26-.02.38-.05.43-.07.89-.07,1.32,0,.14-.02.29-.05.43,0,.14,0,.29-.02.46,0,.02.02.07,0,.1-.07.19-.05.38-.05.58,0,.14-.02.29-.02.46v.22c-.02.22-.02.43-.05.67,0,.1.02.22.02.31,0,.17-.02.36-.02.53,0,.1,0,.17.05.26.05.07.05.17.07.26t0,.02c-.05.14-.14.22-.26.29-.1.05-.19,0-.26-.05-.17-.17-.34-.31-.41-.53-.14-.31-.19-.65-.17-.98Z"/>
      <path class="cls-1" d="M67.49,12.91v-.89c.02-.31,0-.6,0-.89,0-.43-.02-.86-.02-1.3v-2.06c0-.36.02-.72.02-1.08,0-.26,0-.53.02-.79.02-.1,0-.22,0-.34l.07-.89c0-.17.02-.34.02-.5.02-.29.05-.55.05-.84.02-.17.02-.34.02-.53,0-.02.02-.05.02-.07.05-.31.05-.6.05-.91.02-.24.05-.5.05-.77.02-.14.1-.24.24-.29.07-.02.12-.02.19.02.02.02.07.05.1.02.1-.02.19,0,.29,0,.1-.02.14.02.19.1l.14.14c.14.12.22.26.07.43-.07.05-.07.14-.1.22-.07.24-.07.5-.1.74,0,.26-.02.53-.05.77-.02.02-.02.05-.02.07-.02.46-.02.94-.05,1.39v.34c0,.07,0,.1.07.1.05,0,.07-.02.12-.02.17-.05.34-.12.5-.17s.36-.12.55-.17c.24-.05.5-.1.74-.12.17-.02.36-.02.53-.07.38-.07.79-.1,1.2-.07.12,0,.22.05.34.1.14.02.29.07.41.12.07,0,.1-.02.12-.1v-.02c0-.26,0-.5.02-.77,0-.26.05-.53.05-.82s0-.58.02-.86c0-.14.02-.29.02-.43,0-.12.02-.22.02-.31.02-.14.02-.29.07-.41.02-.1.1-.14.19-.14.12-.02.24,0,.36,0,.05,0,.1.02.12.07.07.07.14.14.22.24.05.05.07.12.05.19,0,.02-.02.05,0,.07.05.1.02.22-.02.31t-.02.05c-.02.41-.05.79,0,1.2.02.1,0,.19,0,.29s-.02.22,0,.31c.02.17,0,.34,0,.5,0,.14-.02.29-.05.41v.05c.02.17,0,.34-.02.5v.05c.05.26,0,.55.02.84,0,.14.05.26-.05.41v.02c.07.26.05.53.05.77,0,.12-.02.24-.05.38l.02.17s.02.1.02.12c-.05.17-.02.36-.02.53.02.07.02.12,0,.19-.02.19-.02.36,0,.55.02.02.02.05.02.07,0,.24.02.5.02.74,0,.14.02.29.02.41,0,.14-.02.31-.02.46,0,.38.02.74.1,1.13v.17c0,.5.02.98.02,1.46v.91c0,.1-.02.22-.02.31,0,.02-.02.05-.05.07-.1.12-.19.22-.29.36,0,.02-.02.05-.07.05-.05.02-.1.07-.14.12-.07.07-.12.05-.19-.02-.02-.05-.05-.1-.1-.12-.12-.05-.14-.14-.19-.24-.12-.34-.19-.67-.17-1.03,0-.36,0-.74-.02-1.13-.02-.36,0-.72-.05-1.1,0-.14.02-.31,0-.48v-.34c0-.41.02-.79.02-1.2,0-.31-.02-.62-.02-.91,0-.34,0-.67.02-1.01v-.43c0-.43.02-.86.05-1.3v-.1c.02-.14,0-.26-.12-.34-.05,0-.07-.02-.1-.05-.12-.1-.24-.14-.38-.12-.12,0-.22-.02-.31-.02h-.19c-.14.02-.31.05-.46.05h-.24c-.22-.02-.43.1-.65.1-.12.02-.24.07-.36.1-.22.05-.43.12-.67.19-.07.02-.17.05-.26.1-.14.07-.31.1-.46.22-.07.05-.17.1-.26.14-.07.02-.12.07-.12.17-.05.62-.07,1.22-.05,1.85.02.48.02.96.02,1.44,0,.17.02.31.02.48,0,.1-.05.22.02.31v.05c-.07.12-.02.24-.02.36,0,.14.02.26.02.41v.14c0,.22.02.43.05.62v.07c-.05.62-.02,1.25-.02,1.87,0,.14.02.29.02.43,0,.17-.05.34-.17.48-.07.1-.12.24-.19.36-.02.07-.05.12-.1.17s-.1.05-.14.02c-.07-.02-.14-.07-.22-.1-.05-.02-.07-.05-.1-.1,0-.05-.02-.07-.02-.12,0-.22-.12-.38-.19-.6-.07-.24-.17-.5-.14-.79.02-.31,0-.6,0-.91Z"/>
      <path class="cls-1" d="M84.34,8.18v-1.08s.02-.07.02-.1v-1.08c0-.12.02-.22.02-.34,0-.19-.02-.38,0-.58v-.77s.02-.07.02-.1c0-.34,0-.65.02-.98,0-.22.02-.43.05-.65.02-.1.02-.22.02-.31.02-.19.02-.36.05-.55s.05-.41.05-.62c.02-.1.02-.22.05-.31.02-.19.14-.29.29-.38h.1s.12.07.17.12c.02.05.07.07.12.1.1.02.17.1.19.19l.17.22c.05.07.1.12.14.17.1.12.17.22.26.31.05.07.1.14.12.22l.07.1c.19.26.34.6.5.89.05.12.1.24.17.34,0,.02.02.05.02.1.05.24.17.43.26.67l.14.24s.02.05.02.07c0,.19.14.34.19.5,0,.02.02.05.02.07,0,.19.07.34.12.5.02.05.02.1.07.14.19.24.26.55.34.86.1.36.24.7.38,1.06l.07.29c.02.07.05.17.1.26.02.07.1.17.1.29,0,.02.05.07.07.12,0,.02.05.05.05.1.02.19.14.36.22.53.02.02.02.05.05.05.02.05.07.12.12.17.07-.05.1-.12.12-.19.07-.17.12-.36.19-.55l.22-.53c.1-.22.19-.46.26-.67.07-.14.1-.34.17-.48.05-.12.12-.24.17-.38l.07-.14c.1-.22.19-.46.31-.7.02-.1.07-.19.12-.29.1-.14.19-.31.26-.48.14-.29.29-.58.46-.84.05-.07.05-.17.07-.24.07-.12.12-.26.19-.38.05-.12.1-.24.14-.34l.07-.14c.14-.22.26-.46.38-.7,0-.02.02-.05.02-.07l.5-.82c.07-.12.14-.24.22-.34.02-.05.07-.1.14-.14.05-.05.12-.1.19-.14.19-.14.41-.17.65-.17.07,0,.17.12.19.19.02.19.05.36,0,.53-.02.07,0,.14,0,.24,0,.07.02.14.02.24.02.12.02.24.05.36v.05c0,.19-.02.41-.02.6,0,.07,0,.14.02.22.05.38.05.77.05,1.15v.65c0,.1,0,.19.05.29l.02.1c-.05.19,0,.38,0,.58-.02.26.02.5.05.77.02.17,0,.34-.02.53v.07c.07.19.02.38,0,.58-.02.14-.05.26-.05.38-.02.07-.02.17-.02.24v.46c0,.38,0,.74-.02,1.1,0,.1.02.22-.05.29v.07c.05.1.02.19,0,.29,0,.07,0,.14.02.22.02.1,0,.17-.02.24,0,.02-.02.05,0,.07,0,.17-.05.31-.05.46s-.02.31-.02.46c0,.05,0,.12-.02.17v.02c.02.24-.05.48-.02.74.05.17.05.38,0,.55v.14c.02.29-.02.55-.12.82-.02.12-.02.24-.05.36l-.07.43-.02.1c.02.19-.12.34-.19.48-.05.07-.19.1-.29.02-.05-.02-.1-.07-.14-.12l-.22-.24c-.07-.07-.14-.17-.14-.29-.02-.07-.02-.14-.05-.22-.02-.17.02-.34.02-.53,0-.1,0-.19.02-.29,0-.12,0-.22.02-.34.07-.24.05-.5.07-.77l.07-.82c.02-.22.05-.43.07-.67l.07-.86s0-.05.02-.07c.07-.31.07-.65.1-.98.02-.26.05-.5.05-.77.02-.1.02-.17.02-.26,0-.24,0-.48.02-.74,0-.17.02-.31.02-.48,0-.02,0-.05.02-.07.07-.19.05-.38.05-.55,0-.34,0-.67-.02-.98,0-.19-.02-.38-.02-.58-.02-.14-.02-.29-.02-.41v-1.18c-.02-.22-.05-.43-.05-.65-.02-.17-.02-.34-.02-.5,0-.05-.02-.07-.05-.1l-.07.05c-.07.1-.14.19-.17.31-.05.19-.17.38-.26.55-.12.24-.24.46-.31.7-.05.14-.1.26-.19.41-.1.14-.14.34-.24.48l-.12.22c-.19.41-.43.77-.55,1.18l-.07.1c-.12.17-.17.36-.24.55l-.5,1.25c-.07.22-.19.41-.26.6-.02.05-.05.1-.05.12-.07.26-.19.53-.29.77-.1.26-.17.55-.26.82l-.05.26v.1l.14.72s.02.02.02.05c0,.34.1.65.07.98-.02,0-.02.02,0,.05.05.26,0,.53,0,.82-.02.1-.05.22-.1.31-.02.02-.02.05-.02.07.02.17-.1.34-.07.5,0,.02-.02.05-.05.02-.07-.02-.1.02-.12.07s-.07.12-.1.19c-.02.07-.07.12-.14.14-.07.02-.14.07-.19.17,0,.02-.05.07-.12.07h-.26c-.1.02-.17,0-.22-.1-.07-.1-.19-.1-.29-.14-.07-.05-.1-.07-.12-.14-.02-.1-.1-.17-.14-.26-.05-.07-.07-.17-.1-.24-.05-.12-.07-.22-.1-.34v-.19c0-.12,0-.24.02-.36,0-.14,0-.29.05-.46.05-.14.05-.31.07-.46.02-.26.12-.48.19-.72.07-.17.12-.34.19-.48.02-.07.05-.17.07-.22.05-.1.05-.17.02-.26-.02-.17-.07-.34-.12-.5l-.1-.24c-.07-.17-.14-.34-.19-.5-.07-.19-.14-.38-.26-.58-.1-.22-.17-.43-.24-.67-.05-.19-.12-.38-.22-.58-.07-.14-.14-.31-.19-.46-.1-.22-.19-.43-.24-.67l-.14-.5s-.02-.07-.05-.1c-.14-.29-.26-.6-.36-.91-.02-.14-.07-.31-.17-.46l-.14-.31c-.07-.22-.17-.43-.26-.65-.05-.14-.07-.26-.14-.38l-.24-.43s-.05-.05-.07-.05c0,0-.02.02-.02.05-.02.05-.02.1-.02.14.02.22.02.43,0,.65-.02.17,0,.34,0,.48v.14s-.02.05-.02.07c.05.43,0,.86,0,1.3.02.34.02.67,0,1.01v.55c0,.31,0,.62-.02.96,0,.12.05.26.02.41-.02.19-.02.41-.02.6.02.36.02.74.05,1.1,0,.26.02.5.02.77.02.29.02.55.02.84,0,.1.02.19.02.29-.02.24,0,.46.02.7v.29s.02.12.02.19c0,.14-.02.29-.02.43,0,.05,0,.1.02.12.05.17.02.34,0,.53-.02.1-.02.17.02.26.07.1.02.19,0,.29,0,.05-.02.1-.02.14.02.07,0,.12-.02.19-.05.05-.05.1-.02.14.07.12,0,.22-.05.31-.02.05-.07.07-.12.07-.22-.05-.41-.14-.5-.34l-.22-.43c-.07-.12-.1-.22-.1-.36,0-.26-.02-.53-.02-.79,0-.1.02-.19.02-.29v-.02c-.02-.14-.02-.31-.02-.46,0-.17-.05-.34-.02-.5,0-.05,0-.1-.02-.14,0-.17-.02-.36-.02-.53-.02-.41-.05-.84-.05-1.25-.02-.05-.02-.1-.02-.12,0-.31-.02-.62-.05-.96v-.96ZM89.42,12.72c0-.12,0-.26-.02-.38-.02-.14-.02-.29-.05-.43-.02-.1-.07-.12-.17-.05-.02.02-.05.05-.07.1-.02.12-.1.24-.07.38,0,.02-.02.05-.02.07-.07.17-.17.34-.14.53,0,0-.02,0-.02.02-.05.07-.05.17-.05.26,0,.07,0,.14-.02.22,0,.12.05.17.17.14.05,0,.1-.02.14-.05.1-.02.17-.07.22-.17.07-.22.12-.43.12-.65Z"/>
      <path class="cls-1" d="M97.66,14.47c.26-.05.5-.05.74-.1.19-.02.38-.1.58-.14.26-.02.53-.12.79-.12.17,0,.36,0,.5.07.02.02.05.02.07.02.05.02.1.02.12.05.07.05.12.1.17.14.07.05.1.14.07.24-.05.14-.17.19-.29.26-.05.02-.1.02-.17.05-.07.02-.12.05-.17.1-.07.1-.17.12-.29.12,0,0-.02-.02-.05-.02-.22.07-.46.02-.67.07-.19.05-.41.05-.6.1-.19.02-.38.1-.6.05h-.05c-.14.05-.29.07-.43.12-.12.07-.24.05-.36,0-.07-.02-.17-.1-.24-.19-.05-.07-.12-.1-.22-.12-.02,0-.05,0-.1-.02-.14-.02-.22-.12-.19-.26.02-.1,0-.17-.02-.26-.02-.05-.02-.1-.02-.12-.02-.22-.02-.41-.02-.62.02-.26,0-.53.05-.79l-.02-.17s-.02-.07-.05-.12c0-.19,0-.41-.02-.62,0-.12-.02-.24-.02-.36v-.84c0-.17.02-.34.02-.5,0-.1-.02-.22-.02-.31.02-.22.02-.41.02-.62v-.05c.02-.38.02-.74.05-1.13,0-.12,0-.22.02-.34,0-.1.02-.17.02-.26v-.58l.07-.67c.02-.19.05-.36.05-.55.02-.29.07-.6.07-.89v-.48c.02-.24.02-.48.05-.72v-1.08l-.07-.53c0-.07,0-.14-.02-.22v-.07c.02-.07,0-.14,0-.22-.02-.14-.02-.29-.02-.41,0-.02,0-.07.02-.07.1-.1.12-.26.24-.34.07-.07.14-.1.26-.07.14.02.29,0,.46-.02.17-.05.36-.05.53-.07l1.08-.14c.14-.02.29-.02.43-.05.02,0,.02-.02.05-.02.34,0,.7-.02,1.03,0,.26.02.53.12.7.36.02.02.05.05.05.1,0,.14,0,.29-.07.41-.07.07-.26.19-.38.19-.12-.02-.24-.02-.36.02h-.07c-.17-.02-.36.02-.55.02-.14.02-.31.02-.48.02h-.1c-.19.07-.41.12-.6.07h-.07c-.12.02-.22.05-.31.05-.12-.02-.24,0-.36.02-.17,0-.26.17-.36.29-.02.02-.02.07-.02.12.05.19.05.38.05.58,0,.1.02.22.02.31,0,.07-.02.12-.02.19v1.82c0,.22-.05.46-.07.7,0,.22-.02.43-.05.65-.05.46-.02.91-.05,1.37,0,.29,0,.55-.05.82v1.63c0,.07.05.1.12.1.22-.02.43-.05.62-.07l.91-.14c.12-.02.24-.05.34-.05.22-.02.41,0,.6.1.07.07.19.12.26.17.1.07.12.1.07.22,0,.02-.02.07-.02.12,0,.07-.05.12-.1.14-.12.07-.22.17-.34.17-.17.02-.29.07-.43.14-.1.05-.19.05-.31.05-.19.02-.38.05-.55.05-.1.02-.19.02-.26.02l-.12.05c-.12.05-.29.1-.41.19-.07.05-.17.07-.26.12-.1.02-.14.1-.14.22,0,.26.02.55.05.82v.53c-.02.19-.02.38.02.55v.6s.05.07.1.07h.19v.02Z"/>
    </g>
  </g>
</svg>